<?xml version="1.0" standalone="no"?>
<!DOCTYPE svg PUBLIC "-//W3C//DTD SVG 1.1//EN" "http://www.w3.org/Graphics/SVG/1.1/DTD/svg11.dtd" >
<svg xmlns="http://www.w3.org/2000/svg">
<metadata></metadata>
<defs>
<font id="luxi_monobold" horiz-adv-x="1228" >
<font-face units-per-em="2048" ascent="1638" descent="-410" />
<missing-glyph horiz-adv-x="500" />
<glyph horiz-adv-x="0" />
<glyph unicode="&#xd;" horiz-adv-x="681" />
<glyph unicode=" " />
<glyph unicode="!" d="M467 0v248h297v-248h-297zM467 1184v297h297v-297l-64 -764h-172z" />
<glyph unicode="&#x22;" d="M195 1579h297l-50 -543h-198zM737 1579h297l-49 -543h-197z" />
<glyph unicode="#" d="M49 432l35 172h213l65 273h-225l37 172h232l112 432h176l-106 -432h207l106 432h178l-108 -432h209l-33 -172h-217l-70 -273h234l-37 -172h-240l-110 -432h-181l113 432h-209l-111 -432h-178l111 432h-203zM475 604h207l68 273h-207z" />
<glyph unicode="$" d="M109 55v326h174l22 -150q88 -39 174 -55v510q-6 4 -47 35q-152 111 -217 203t-65 192q0 154 108.5 251t296.5 112v198h172v-198q127 -12 264 -49v-295h-172l-24 151q-37 14 -68 17v-469q197 -131 266.5 -221.5t69.5 -211.5q0 -166 -98 -264q-90 -98 -314 -137v-197h-172 v197q-198 16 -370 55zM416 1145q0 -95 139 -191v346q-139 -25 -139 -155zM651 180l23 4q51 10 84 56.5t33 109.5q0 117 -140 219v-389z" />
<glyph unicode="%" d="M0 1110q0 164 89 267.5t230 103.5q143 0 233.5 -101.5t90.5 -263.5q0 -166 -89 -270.5t-232.5 -104.5t-232.5 102.5t-89 266.5zM45 -37l983 1555h158l-983 -1555h-158zM231 1112q0 -199 91 -199q88 0 88 191q-1 205 -91 205q-88 0 -88 -197zM586 368.5q0 163.5 89 267 t232.5 103.5t233.5 -101t90 -261q0 -168 -90 -272.5t-233.5 -104.5t-232.5 102.5t-89 266zM817 371q0 -199 90 -199t90 188q0 207 -90 207t-90 -196z" />
<glyph unicode="&#x26;" d="M45 408q0 172 77 288.5t245 202.5q-102 203 -103 320q0 129 90 214t228 85q133 0 219 -88.5t86 -225.5q0 -106 -60.5 -194t-199.5 -181q102 -225 245 -448q59 119 60 256v43h-103v172h379v-172h-106q0 -238 -135 -436l55 -70h125v-174h-277l-61 88q-131 -125 -326 -125 q-199 0 -318.5 122t-119.5 323zM281 479q0 -133 79.5 -218t206.5 -85q87 0 146 43q-182 299 -281 526q-152 -94 -151 -266zM487 1235q0 -80 76 -254q98 121 99 240q0 125 -87 125q-88 0 -88 -111z" />
<glyph unicode="'" d="M442 1579h344l-73 -616h-197z" />
<glyph unicode="(" d="M193 641q0 459 323 745q113 98 233.5 143.5t282.5 49.5v-172q-229 -43 -366 -207q-178 -213 -179 -561q0 -360 199 -582q131 -145 346 -180v-174q-229 6 -422 131q-418 266 -417 807z" />
<glyph unicode=")" d="M197 -123q231 43 366 205q178 215 178 561q0 362 -198 584q-133 145 -346 180v172q233 -6 421 -129q418 -266 418 -807q0 -463 -323 -745q-113 -98 -234 -144.5t-282 -50.5v174z" />
<glyph unicode="*" d="M154 1038l75 254l291 -174q-31 -37 -31 -78v-4v-14zM256 737l252 230q31 -43 82 -56l-109 -315zM483 1481h269l-86 -332q-31 12 -52 12q-18 0 -49 -10zM637 911q47 8 84 56l252 -224l-217 -151zM711 1114l295 180l69 -256l-336 -12v4v6v4q1 39 -28 74z" />
<glyph unicode="+" d="M98 518v199h418v416h199v-416h415v-199h-415v-418h-199v418h-418z" />
<glyph unicode="," d="M442 0v344h344v-283q0 -229 -70.5 -318t-252.5 -89h-21v123h15q72 0 95 44t26 179h-136z" />
<glyph unicode="-" d="M147 518v199h934v-199h-934z" />
<glyph unicode="." d="M442 0v344h344v-344h-344z" />
<glyph unicode="/" d="M0 -297l1010 1876h219l-1010 -1876h-219z" />
<glyph unicode="0" d="M86 741q0 371 138 574t390 203t390.5 -203t138.5 -572q0 -375 -139.5 -577.5t-397.5 -202.5q-246 0 -383 206t-137 572zM408 743q0 -608 210 -608q203 0 203 617q0 594 -206.5 594t-206.5 -603z" />
<glyph unicode="1" d="M147 0v172h340v1030l-340 -100v172l637 231v-1333h344v-172h-981z" />
<glyph unicode="2" d="M188 0v211q57 123 197 287l213 252q176 207 176 370q0 225 -219 226q-94 0 -186 -43l-21 -201h-155v342q199 76 387 76q219 0 340.5 -107.5t121.5 -302.5q0 -119 -47 -203t-192 -223l-113 -109q-174 -168 -221 -327h569v-248h-850z" />
<glyph unicode="3" d="M172 14v314h184l25 -158q104 -33 164 -33q104 0 166.5 66.5t62.5 177.5q0 143 -99.5 227t-266.5 84h-101v172h99q322 0 321 264q0 217 -197 218q-53 0 -137 -29l-24 -158h-185v297q213 61 394 62q211 0 337.5 -97.5t126.5 -259.5q0 -135 -81.5 -222t-264.5 -144 q182 -35 289 -143.5t107 -258.5q0 -193 -155 -311.5t-402 -118.5q-123 0 -363 51z" />
<glyph unicode="4" d="M72 408v192l630 899h271v-881h172v-210h-172v-236h147v-172h-690v172h272v236h-630zM305 618h397v568z" />
<glyph unicode="5" d="M233 18v310h185l24 -156q68 -35 123 -35q94 0 150.5 69.5t56.5 184.5q0 348 -399 348q-53 0 -107 -6v748h805v-246h-633v-320q315 -4 484.5 -128.5t169.5 -350.5q0 -207 -150.5 -340t-386.5 -133q-119 0 -322 55z" />
<glyph unicode="6" d="M106 688q0 377 172.5 603.5t456.5 226.5q135 0 334 -43v-316h-184l-27 158q-63 29 -123 29q-139 0 -227 -133.5t-88 -342.5v-12l2 -59q127 170 313 170q182 0 297 -135.5t115 -346.5q0 -233 -137.5 -378.5t-356.5 -145.5q-254 0 -400.5 194.5t-146.5 530.5zM459 455 q0 -150 51 -235t141 -85q176 0 176 309q0 316 -178 316q-190 0 -190 -305z" />
<glyph unicode="7" d="M129 1235v246h971v-197l-166 -229q-395 -551 -422 -1055h-319q2 166 82.5 344t299.5 510l254 381h-700z" />
<glyph unicode="8" d="M94 362q0 125 70.5 229t228.5 208q-129 90 -171 153.5t-42 169.5q0 178 124 287t329 109q193 0 308.5 -91.5t115.5 -242.5q0 -176 -232 -361q176 -104 244 -192t68 -215q0 -195 -149.5 -324t-379 -129t-372 110.5t-142.5 288.5zM389 406q0 -121 69.5 -196t182.5 -75 q94 0 154.5 57.5t60.5 145.5q0 66 -36.5 115t-147.5 131l-152 112q-131 -139 -131 -290zM453 1184q0 -105 127 -205l94 -76q113 141 112 248q0 94 -45 144.5t-129 50.5q-78 0 -118.5 -42t-40.5 -120z" />
<glyph unicode="9" d="M82 993q0 233 137 379t356 146q254 0 400.5 -195t146.5 -532q0 -377 -171 -602.5t-455 -225.5q-141 0 -336 45v314h184l27 -158q66 -27 123 -27q139 0 227 132t88 341v11l-2 61q-127 -170 -313 -170q-182 0 -297 135t-115 346zM401 1038q0 -315 179 -315q190 0 190 303 q0 150 -51 235t-141 85q-176 0 -177 -308z" />
<glyph unicode=":" d="M442 0v344h344v-344h-344zM442 739v346h344v-346h-344z" />
<glyph unicode=";" d="M442 0v344h344v-283q0 -229 -70.5 -318t-252.5 -89h-21v123h15q72 0 95 44t26 179h-136zM442 739v346h344v-346h-344z" />
<glyph unicode="&#x3c;" d="M98 623l1030 612v-223l-655 -389l655 -398v-225z" />
<glyph unicode="=" d="M102 307v199h1024v-199h-1024zM102 729v197h1024v-197h-1024z" />
<glyph unicode="&#x3e;" d="M98 0v221l654 389l-654 398v227l1030 -625z" />
<glyph unicode="?" d="M127 1122v330q268 66 448 66q260 0 397.5 -85t137.5 -243q0 -139 -133 -242l-72 -55l-59 -47q-104 -88 -140 -158t-36 -188v-80h-295v39q0 133 44 216t179 208l59 53q133 121 134 225q0 90 -66 137.5t-188 47.5q-100 0 -211 -46l-27 -178h-172zM375 0v248h297v-248h-297z " />
<glyph unicode="@" d="M45 735q0 354 180.5 569.5t476.5 215.5q225 0 326.5 -107.5t101.5 -343.5v-600h87v-172h-259v309h-12q-82 -197 -140 -261t-155 -64q-119 0 -191.5 103t-72.5 271q0 221 121 371t301 150q49 0 143 -21q-23 104 -88 153.5t-182 49.5q-201 0 -331 -174t-130 -443 q0 -279 131 -448.5t346 -169.5q117 0 260 63v-180q-131 -43 -253 -43q-299 0 -479.5 210t-180.5 562zM586 686q0 -229 100 -229q61 0 125.5 102.5t146.5 329.5v123q-80 25 -135 24q-238 0 -237 -350z" />
<glyph unicode="A" d="M25 0v174h61l375 1307h307l375 -1307h61v-174h-491v174h135l-68 234h-448l-66 -234h135v-174h-376zM381 580h350l-174 610h-2z" />
<glyph unicode="B" d="M37 0v174h98v1135h-98v172h557q270 0 389 -75t119 -245q0 -131 -76 -222t-246 -163q184 -43 281.5 -145.5t97.5 -251.5q0 -379 -526 -379h-596zM432 174h80q178 0 251 49t73 170q0 287 -355 287h-49v-506zM432 852h45q139 0 223 73.5t84 196.5q0 106 -64.5 146.5 t-236.5 40.5h-51v-457z" />
<glyph unicode="C" d="M49 731q0 354 192.5 570.5t510.5 216.5q176 0 399 -66v-428h-172l-27 258q-86 63 -188 64q-180 0 -286.5 -160t-106.5 -428q0 -285 118.5 -442.5t331.5 -157.5q154 0 361 102v-215q-199 -82 -410 -82q-332 0 -527.5 208t-195.5 560z" />
<glyph unicode="D" d="M37 0v174h98v1135h-98v172h440q342 0 522.5 -182.5t180.5 -526.5q0 -371 -191.5 -571.5t-546.5 -200.5h-405zM432 174h45q381 0 381 580q0 279 -94 415t-289 138l-43 2v-1135z" />
<glyph unicode="E" d="M37 0v172h147v1137h-147v172h1073v-371h-184v199h-445v-482h236v123h172v-420h-172v125h-236v-471h506v224h184v-408h-1134z" />
<glyph unicode="F" d="M37 0v172h147v1137h-147v172h1122v-371h-184v199h-494v-533h283v125h174v-420h-174v123h-283v-420h197v-184h-641z" />
<glyph unicode="G" d="M49 729q0 356 191.5 572.5t509.5 216.5q176 0 389 -66v-428h-174l-25 258q-86 63 -186 64q-172 0 -278.5 -163t-106.5 -427q0 -266 112.5 -431t292.5 -165q41 0 98 10v342h-184v172h481v-635q-203 -86 -421 -86q-315 0 -507 211t-192 555z" />
<glyph unicode="H" d="M37 0v174h98v1135h-98v172h493v-172h-98v-457h365v457h-99v172h494v-172h-98v-1135h98v-174h-494v174h99v494h-365v-494h98v-174h-493z" />
<glyph unicode="I" d="M123 0v172h342v1137h-342v172h981v-172h-342v-1137h342v-172h-981z" />
<glyph unicode="J" d="M111 31v487h172l24 -319q100 -61 170 -62q92 0 128 58.5t36 207.5v906h-322v172h865v-172h-246v-926q0 -420 -438 -420q-119 0 -312 47z" />
<glyph unicode="K" d="M37 0v174h98v1135h-98v172h493v-172h-98v-531h25l436 531h-111v172h443v-172h-115l-405 -490l483 -645h41v-174h-490v174h123l-405 543h-25v-543h98v-174h-493z" />
<glyph unicode="L" d="M49 0v172h197v1137h-197v172h690v-172h-196v-1125h477v310h160v-494h-1131z" />
<glyph unicode="M" d="M12 0v172h74v1137h-74v172h371l229 -963l242 963h363v-172h-68v-1137h68v-172h-439v172h137v926h-6l-229 -914h-201l-203 840h-6v-852h113v-172h-371z" />
<glyph unicode="N" d="M37 0v172h98v1137h-98v172h295l590 -1000v828h-150v172h445v-172h-99v-1309h-196l-590 993v-821h149v-172h-444z" />
<glyph unicode="O" d="M49 741q0 375 146.5 576t419 201t419 -201t146.5 -578q0 -776 -572 -776q-268 0 -413.5 203t-145.5 575zM356 743q0 -608 265 -608q251 0 251 605q0 606 -258 606t-258 -603z" />
<glyph unicode="P" d="M37 0v172h199v1137h-199v172h635q276 0 401 -94.5t125 -303.5q0 -240 -162 -378t-442 -138h-62v-395h295v-172h-790zM532 739h37q313 0 314 305q0 147 -63.5 206t-225.5 59h-62v-570z" />
<glyph unicode="Q" d="M49 737q0 377 145.5 579t420 202t420 -201t145.5 -580q0 -283 -74 -448.5t-250 -278.5q197 -82 369 -90q-74 -162 -185 -285q-204 84 -374 328h-17q-600 0 -600 774zM356 745q0 -608 265 -608q251 0 251 606q0 603 -258 603t-258 -601z" />
<glyph unicode="R" d="M37 0v172h98v1137h-98v172h541q248 0 333 -51q160 -94 160 -306q0 -133 -69.5 -235.5t-221.5 -192.5l361 -524h76v-172h-312l-432 616h-41v-444h172v-172h-567zM432 791h49q123 0 193.5 80.5t70.5 222.5q0 127 -53 171t-203 44h-57v-518z" />
<glyph unicode="S" d="M113 55v385h172l24 -211q168 -92 287 -92q109 0 168 50.5t59 144.5q0 113 -143 196l-68 41l-135 84q-195 121 -266.5 215.5t-71.5 229.5q0 197 130 309.5t358 112.5q172 0 411 -74v-377h-174l-22 217q-113 59 -213 60q-84 0 -135.5 -52.5t-51.5 -134.5q0 -66 42 -113 t175 -126l146 -89q199 -121 257 -195.5t58 -205.5q0 -217 -150.5 -342t-410.5 -125q-161 0 -446 92z" />
<glyph unicode="T" d="M47 1085v396h1135v-396h-185v224h-233v-1137h221v-172h-741v172h223v1137h-236v-224h-184z" />
<glyph unicode="U" d="M20 1309v172h494v-172h-98v-742q0 -242 57 -336t207 -94q133 0 182 80t49 291v801h-98v172h395v-172h-98v-766q0 -287 -74 -398q-123 -182 -405 -182q-289 0 -426 172q-86 109 -86 361v813h-99z" />
<glyph unicode="V" d="M12 1309v172h486v-172h-127l291 -1008l311 1008h-125v172h369v-172h-76l-402 -1309h-293l-376 1309h-58z" />
<glyph unicode="W" d="M12 1309v172h387v-172h-90l84 -787h6l119 750h230l135 -760h6l90 797h-57v172h295v-172h-62l-145 -1309h-244l-162 868l-145 -868h-248l-139 1309h-60z" />
<glyph unicode="X" d="M12 0v174h82l375 563l-322 572h-110v172h555v-172h-115l182 -324l197 324h-96v172h420v-172h-105l-319 -490l362 -645h99v-174h-543v174h114l-225 395l-250 -395h95v-174h-396z" />
<glyph unicode="Y" d="M14 1309v172h543v-172h-96l244 -424l219 424h-103v172h396v-172h-87l-348 -660v-477h246v-172h-788v172h245v477l-379 660h-92z" />
<glyph unicode="Z" d="M111 0v184l669 1125h-448v-224h-185v396h959v-185l-666 -1112h494v248h184v-432h-1007z" />
<glyph unicode="[" d="M344 -297v1876h690v-172h-420v-1532h420v-172h-690z" />
<glyph unicode="\" d="M0 1579h219l1010 -1876h-219z" />
<glyph unicode="]" d="M193 -125h417v1532h-417v172h690v-1876h-690v172z" />
<glyph unicode="^" d="M145 543l469 938l469 -938h-219l-250 518l-249 -518h-220z" />
<glyph unicode="_" d="M0 0h1229v-197h-1229v197z" />
<glyph unicode="`" d="M369 1604h284l209 -322h-172z" />
<glyph unicode="a" d="M86 287q0 184 152.5 281.5t441.5 97.5h90v112q0 90 -41 126t-147 36q-125 0 -230 -53l-20 -115h-172v254q254 84 473 84q231 0 332.5 -69.5t101.5 -227.5v-641h113v-172h-369l-41 104q-152 -129 -344 -129q-154 0 -247 85t-93 227zM387 303q0 -133 139 -133 q129 0 244 121v227h-45q-154 0 -246 -59.5t-92 -155.5z" />
<glyph unicode="b" d="M37 1405v174h395v-655q78 98 159 142t181 44q182 0 288.5 -143.5t106.5 -386.5q0 -289 -138 -447t-392 -158q-84 0 -205 25h-297v1405h-98zM432 203l27 -6q76 -20 151 -21q260 0 260 371q0 336 -196 336q-125 0 -242 -172v-508z" />
<glyph unicode="c" d="M61 541q0 264 183.5 416.5t503.5 152.5q217 0 419 -55v-365h-172l-24 203q-113 47 -234 47q-362 0 -362 -371q0 -195 104.5 -296t304.5 -101q148 0 396 94v-215q-229 -76 -447 -76q-315 0 -493.5 149.5t-178.5 416.5z" />
<glyph unicode="d" d="M61 506q0 289 138.5 446.5t392.5 157.5q82 0 205 -25v320h-123v174h420v-1407h98v-172h-395v160q-150 -184 -340 -185q-182 0 -289 143.5t-107 387.5zM358 539q0 -336 197 -336q127 0 242 172v508l-29 6q-72 20 -150 20q-260 0 -260 -370z" />
<glyph unicode="e" d="M61 535q0 258 160 416.5t420 158.5q248 0 382 -148.5t134 -422.5v-58h-786q16 -92 41.5 -143t76.5 -92q98 -76 265 -76q163 0 413 84v-203q-242 -76 -471 -76q-299 0 -467 148.5t-168 411.5zM377 653h481q-2 133 -62.5 207t-166.5 74q-113 0 -178.5 -74t-73.5 -207z" />
<glyph unicode="f" d="M121 0v172h270v705h-270v184h270v92q0 223 126 338t370 115q158 0 342 -78v-256h-172l-25 121q-78 39 -149 39q-195 0 -195 -269v-102h414v-184h-414v-705h316v-172h-883z" />
<glyph unicode="g" d="M92 -197q0 129 207 222q-104 72 -104 143q0 100 165 219q-109 61 -156.5 138t-47.5 188q0 176 114.5 286.5t300.5 110.5q72 0 168 -25l471 25l-61 -211l-195 31q72 -113 72 -228q0 -170 -119 -276.5t-305 -106.5q-39 0 -88 11q-72 -51 -72 -94q0 -52 166 -52h152 q360 0 360 -245q0 -164 -150.5 -261.5t-406.5 -97.5q-213 0 -342 61.5t-129 161.5zM401 -131q0 -117 205 -117q102 0 167 41t65 105q0 57 -45 79.5t-158 22.5h-150q-84 -72 -84 -131zM440 713q0 -221 154 -221t154 221q0 225 -154 225t-154 -225z" />
<glyph unicode="h" d="M37 0v172h104v1233h-104v174h395v-655q84 98 170 142t199 44q158 0 225.5 -85t67.5 -280v-573h104v-172h-518v172h129v473q0 137 -28.5 187.5t-104.5 50.5q-61 0 -118.5 -40t-131.5 -132v-539h129v-172h-518z" />
<glyph unicode="i" d="M139 0v172h371v741h-371v172h668v-913h369v-172h-1037zM510 1282v297h297v-297h-297z" />
<glyph unicode="j" d="M80 49h172l24 -231q106 -68 199 -68q106 0 145 70.5t39 267.5v825h-432v172h729v-981q0 -268 -121.5 -396t-377.5 -128q-150 1 -377 64v405zM659 1282v297h297v-297h-297z" />
<glyph unicode="k" d="M37 0v174h98v1231h-98v174h395v-963h49l283 297h-123v172h516v-172h-147l-265 -276l349 -463h98v-174h-471v174l-240 320h-49v-320h98v-174h-493z" />
<glyph unicode="l" d="M139 0v172h371v1235h-371v172h668v-1407h369v-172h-1037z" />
<glyph unicode="m" d="M25 0v172h79v741h-79v172h301v-184q121 209 247 209q123 0 152 -209q106 209 242 209q88 0 122.5 -69.5t34.5 -241.5v-627h86v-172h-307v635l-2 115q-2 143 -41 143q-53 0 -135 -217v-676h-221v635l-2 115q-2 141 -41 141q-53 0 -135 -215v-676h-301z" />
<glyph unicode="n" d="M37 0v172h104v741h-104v172h389v-161q96 109 174 147.5t201 38.5q158 0 225.5 -85t67.5 -280v-573h104v-172h-518v172h129v473q0 137 -28.5 187.5t-104.5 50.5q-115 0 -250 -172v-539h129v-172h-518z" />
<glyph unicode="o" d="M61 543q0 252 154 409.5t399.5 157.5t399 -157.5t153.5 -409.5q0 -254 -154.5 -411t-404.5 -157q-242 0 -394.5 159t-152.5 409zM369 543q0 -182 66.5 -289t178.5 -107q244 0 244 394q0 182 -65.5 289.5t-178 107.5t-179 -107.5t-66.5 -287.5z" />
<glyph unicode="p" d="M37 -221h98v1134h-98v172h395v-161q78 98 159 142t181 44q182 0 288.5 -143.5t106.5 -386.5q0 -289 -138 -447t-392 -158q-84 0 -205 25v-221h123v-174h-518v174zM432 203l27 -6q76 -20 151 -21q260 0 260 371q0 336 -196 336q-127 0 -242 -172v-508z" />
<glyph unicode="q" d="M61 506q0 289 138.5 446.5t392.5 157.5q96 0 205 -25h297v-1306h123v-174h-519v174h99v381q-150 -184 -340 -185q-182 0 -289 143.5t-107 387.5zM358 539q0 -336 197 -336q125 0 242 172v508l-29 6q-76 20 -150 20q-260 0 -260 -370z" />
<glyph unicode="r" d="M55 0v172h248v741h-248v172h545v-159q78 98 154.5 141t173.5 43q121 0 246 -55v-353h-173l-24 154q-55 31 -109 31q-121 0 -268 -187v-528h320v-172h-865z" />
<glyph unicode="s" d="M168 778q0 162 121 247t352 85q197 0 389 -59v-312h-172l-24 156q-98 43 -209 43q-174 0 -174 -125q0 -49 31.5 -72.5t144.5 -58.5l168 -51q164 -51 229.5 -118t65.5 -185q0 -168 -119 -260.5t-332 -92.5q-193 0 -451 76v320h172l27 -150q141 -71 255 -71h3 q162 0 162 116q0 57 -37 90t-135 60l-143 41q-324 90 -324 321z" />
<glyph unicode="t" d="M74 889v172h270v270h297v-270h432v-172h-432v-475q0 -131 33 -180.5t117 -49.5q111 0 294 86v-202q-211 -92 -376 -93q-193 0 -279 102.5t-86 328.5v483h-270z" />
<glyph unicode="u" d="M31 913v172h389v-645q0 -137 27.5 -188t105.5 -51q117 0 250 174v538h-129v172h413v-913h105v-172h-389v160q-98 -109 -175 -147t-200 -38q-158 0 -225.5 85t-67.5 280v573h-104z" />
<glyph unicode="v" d="M12 913v172h555v-172h-143l238 -653l266 653h-131v172h420v-172h-105l-369 -913h-294l-334 913h-103z" />
<glyph unicode="w" d="M12 913v172h396v-172h-82l75 -510h5l116 474h246l117 -504h4l78 540h-78v172h328v-172h-76l-135 -913h-246l-137 602h-5l-151 -602h-246l-135 913h-74z" />
<glyph unicode="x" d="M25 0v172h125l305 363l-285 378h-98v172h514v-172h-78l154 -204l172 204h-74v172h409v-172h-94l-305 -350l297 -391h137v-172h-588v172h111l-162 211l-174 -211h101v-172h-467z" />
<glyph unicode="y" d="M12 913v172h584v-172h-147l229 -518l237 518h-145v172h447v-172h-103l-526 -1136h200v-172h-684v172h197l203 256l-391 880h-101z" />
<glyph unicode="z" d="M147 0v197l558 716h-386v-196h-172v368h908v-172l-566 -729h420v199h172v-383h-934z" />
<glyph unicode="{" d="M145 555v172h84q246 0 246 150q0 27 -16 106l-37 156q-18 82 -19 147q0 156 121 224.5t398 68.5h125v-172h-86q-260 0 -261 -115q0 -31 13 -90l24 -106q18 -90 19 -160q0 -100 -56.5 -171t-181.5 -126q123 -45 179.5 -114.5t56.5 -178.5q0 -82 -17 -160l-24 -106 q-12 -55 -13 -90q0 -113 261 -113h86v-174h-125q-276 0 -397.5 68.5t-121.5 226.5q0 66 19 145l37 156q14 68 14 109q0 147 -244 147h-84z" />
<glyph unicode="|" d="M516 -297v1876h197v-1876h-197z" />
<glyph unicode="}" d="M182 -123h88q258 0 258 115q0 27 -12 88l-24 108q-18 92 -19 158q0 100 56.5 171t181.5 126q-125 45 -180.5 115.5t-55.5 179.5q0 82 17 158l24 106q12 59 12 90q0 115 -258 115h-88v172h125q276 0 397 -68.5t121 -224.5q0 -66 -18 -147l-37 -156q-14 -66 -14 -109 q0 -147 243 -147h84v-172h-84q-246 0 -245 -149q0 -27 16 -107l37 -156q18 -80 18 -147q0 -156 -121.5 -224.5t-396.5 -68.5h-125v174z" />
<glyph unicode="~" d="M104 432v27q0 170 76 270t205 100q111 0 240 -96l73 -53q92 -70 144 -70q104 0 110 203h172v-27q6 -143 -63 -251q-76 -119 -219 -119q-113 0 -240 96l-72 53q-94 70 -143 70q-105 0 -111 -203h-172z" />
<glyph unicode="&#xa0;" />
<glyph unicode="&#xa1;" d="M467 -98l63 764h172l62 -764v-297h-297v297zM467 838v247h297v-247h-297z" />
<glyph unicode="&#xa2;" d="M127 750q0 270 143 415q66 68 145 100.5t222 55.5v197h172v-191q117 -8 297 -39v-338h-174l-25 150q-49 27 -98 35v-768q170 10 297 57v-215q-131 -29 -297 -37v-209h-172v211q-152 20 -239 60t-154 122q-117 143 -117 394zM449 772q0 -152 44 -241t144 -138v746 q-98 -37 -143 -124t-45 -243z" />
<glyph unicode="&#xa3;" d="M119 0v248q113 2 161 90t48 285v82h-172v172h172v116q0 524 436 525q143 0 330 -58v-301h-172l-25 164q-68 23 -113 23q-160 0 -159 -193v-276h247v-172h-247v-39q0 -147 -56.5 -247t-181.5 -171h719v-248h-987z" />
<glyph unicode="&#xa4;" d="M31 279l196 196l-8 12q-74 125 -74 252q0 142 82 267l-196 196l123 123l196 -197q125 82 264 82q141 0 267 -82l196 197l123 -123l-196 -196q82 -135 81 -267q0 -137 -81 -264l196 -196l-123 -123l-196 196q-129 -82 -267 -82q-127 0 -264 82l-196 -196zM342 743 q0 -115 80 -194.5t194 -79.5q113 0 193 79t80 193.5t-80 193.5t-193 79q-115 0 -194.5 -79t-79.5 -192z" />
<glyph unicode="&#xa5;" d="M18 1309v172h504v-172h-125l305 -455l277 455h-123v172h354v-172h-24l-320 -496h207v-135h-295v-203h295v-135h-295v-168h221v-172h-741v172h223v168h-297v135h297v203h-297v135h203l-344 496h-25z" />
<glyph unicode="&#xa6;" d="M516 -297v741h197v-741h-197zM516 840v739h197v-739h-197z" />
<glyph unicode="&#xa7;" d="M133 1161q0 164 134 260.5t364 96.5q156 0 387 -45v-302h-172l-25 144q-115 31 -203 31q-199 0 -198 -123q0 -84 188 -168l135 -60q174 -78 248 -165t74 -212q0 -150 -135 -307q168 -121 168 -280q0 -164 -136.5 -258.5t-371.5 -94.5q-174 0 -436 66v317h174l24 -153 q145 -57 252 -58q96 0 150.5 34t54.5 96q0 90 -203 182l-162 74q-299 135 -299 346q0 141 164 317q-94 53 -135 113.5t-41 148.5zM375 666q0 -55 44 -97.5t150 -89.5l191 -86l24 -10q66 100 66 164q0 98 -195 190l-184 84l-22 10q-74 -98 -74 -165z" />
<glyph unicode="&#xa8;" d="M281 1284v221h221v-221h-221zM725 1284v221h221v-221h-221z" />
<glyph unicode="&#xa9;" d="M61 741q0 352 152 564.5t401.5 212.5t401 -212t151.5 -563q0 -358 -151.5 -569t-409.5 -211q-246 0 -395.5 214t-149.5 564zM197 741q0 -295 113.5 -475t299.5 -180q193 0 307.5 179t114.5 478q0 293 -116 472.5t-302 179.5q-188 0 -302.5 -179.5t-114.5 -474.5zM287 731 q0 203 99 325t263 122q96 0 203 -27l16 -4v-197h-84v92q-68 25 -127 25q-199 0 -198 -326q0 -330 223 -329q90 0 190 51v-119l-20 -8q-117 -47 -201 -47q-162 0 -263 123t-101 319z" />
<glyph unicode="&#xaa;" d="M154 942q0 270 462 270h129v31q0 127 -206 127q-63 0 -170 -22v-80h-172v188q184 63 376 64q231 0 318.5 -60.5t87.5 -222.5v-373h137v-147h-336l-35 106q-178 -106 -307 -106t-206.5 61.5t-77.5 163.5zM399 963q0 -72 102.5 -72t243.5 82v92h-118q-227 0 -228 -102z" />
<glyph unicode="&#xab;" d="M74 543l444 444l144 -143l-240 -301l240 -301l-144 -144zM567 543l445 444l143 -143l-237 -301l237 -301l-143 -144z" />
<glyph unicode="&#xac;" d="M86 518v199h1030v-520h-196v321h-834z" />
<glyph unicode="&#xad;" d="M147 518v199h934v-199h-934z" />
<glyph unicode="&#xae;" d="M61 741q0 352 152 564.5t401.5 212.5t401 -212t151.5 -563q0 -358 -151.5 -569t-409.5 -211q-246 0 -395.5 214t-149.5 564zM197 741q0 -295 113.5 -475t299.5 -180q193 0 307.5 179t114.5 478q0 293 -116 472.5t-302 179.5q-188 0 -302.5 -179.5t-114.5 -474.5zM365 317 v99h24v649h-24v98h270q217 0 217 -205q0 -139 -125 -221l160 -321h26v-99h-143l-182 367h-51v-268h36v-99h-208zM537 758h6q154 0 153 174q0 133 -123 133h-36v-307z" />
<glyph unicode="&#xaf;" d="M244 1284v172h739v-172h-739z" />
<glyph unicode="&#xb0;" d="M317 1309q0 123 86 209t211 86q123 0 209 -86t86 -211q0 -123 -87 -209t-212 -86q-121 0 -207 87t-86 210zM465 1309q0 -61 43 -105.5t102 -44.5q63 0 107.5 43t44.5 105q0 63 -43.5 106t-106.5 43q-59 0 -103 -44t-44 -103z" />
<glyph unicode="&#xb1;" d="M121 0v197h987v-197h-987zM121 655v197h395v356h197v-356h395v-197h-395v-358h-197v358h-395z" />
<glyph unicode="&#xb2;" d="M236 729v172q72 123 327 229l31 13l55 22q92 39 92 103q0 102 -184 102q-86 0 -160 -27l-12 -86h-147v203q170 59 337 60q401 0 402 -244q0 -133 -154 -199l-100 -41l-33 -12q-133 -53 -190 -123h495v-172h-759z" />
<glyph unicode="&#xb3;" d="M244 1280v180q172 59 381 60q362 0 362 -205q0 -68 -48 -113t-157 -78q109 -31 157 -77t48 -117q0 -213 -393 -213q-168 0 -348 35v174h147l13 -47q84 -14 161 -15q184 0 185 82q0 59 -67 83t-241 24h-96v147h98q305 0 306 94q0 78 -164 78q-76 0 -185 -29l-12 -63h-147z " />
<glyph unicode="&#xb4;" d="M369 1282l209 322h284l-321 -322h-172z" />
<glyph unicode="&#xb6;" d="M88 1155q0 338 358 338q39 0 97 -4l69 -6q14 -2 54 -2h342v-1778h-172v1630h-174v-1630h-173v1036q-131 31 -204.5 71t-122.5 105q-74 98 -74 240z" />
<glyph unicode="&#xb7;" d="M455 469v319h321v-319h-321z" />
<glyph unicode="&#xb8;" d="M395 -311q66 -14 119 -15q119 0 119 62q0 82 -195 82h-18l121 182h135l-76 -113q121 -14 176 -52t55 -103q0 -70 -71.5 -117t-175.5 -47q-78 0 -189 31v90z" />
<glyph unicode="&#xb9;" d="M322 729v148h231v442l-231 -47v147l464 99v-641h232v-148h-696z" />
<glyph unicode="&#xba;" d="M158 1114q0 186 122.5 295t333.5 109t334 -109t123 -295q0 -184 -124 -290.5t-339 -106.5q-205 0 -327.5 107.5t-122.5 289.5zM406 1118.5q0 -112.5 57 -183.5t149 -71q94 0 152.5 70t58.5 184q0 113 -57 182.5t-151.5 69.5t-151.5 -69.5t-57 -182z" />
<glyph unicode="&#xbb;" d="M74 242l237 301l-237 301l143 143l445 -444l-445 -445zM567 242l238 301l-238 301l144 143l444 -444l-444 -445z" />
<glyph unicode="&#xbc;" d="M29 1284v148l344 86v-791h-197v594zM78 -37l897 1555h143l-899 -1555h-141zM567 178v135l338 478h185v-478h98v-135h-98v-178h-185v178h-338zM705 313h200v283z" />
<glyph unicode="&#xbd;" d="M18 1284v148l344 86v-791h-196v594zM37 -37l897 1555h143l-897 -1555h-143zM702 0v172q55 123 175 211l24 20q98 76 98 146q0 106 -94 106q-35 0 -71 -26l-11 -86h-118v188q135 59 225 60q121 0 193.5 -67t72.5 -179.5t-104 -188.5l-66 -41q-16 -8 -18 -12l-29 -18 q-78 -59 -102 -125h319v-160h-494z" />
<glyph unicode="&#xbe;" d="M31 1311v153q139 55 243 56q252 0 252 -197q0 -70 -37.5 -116t-123.5 -81q84 -31 122.5 -78t38.5 -120q0 -94 -73.5 -152.5t-192.5 -58.5q-94 0 -227 35v161h114v-43q59 -18 93 -18q102 0 102 96q0 111 -170 111h-43v135h45q168 0 168 106q0 84 -90 84q-41 0 -105 -28 v-45h-116zM92 -37l897 1555h144l-897 -1555h-144zM569 178v135l338 478h185v-478h98v-135h-98v-178h-185v178h-338zM707 313h200v283z" />
<glyph unicode="&#xbf;" d="M109 -102q0 135 133 237l71 55l60 52q106 90 141 157.5t35 186.5v80h295v-39q0 -131 -44 -216t-177 -206l-60 -55q-135 -121 -135 -226q0 -90 65.5 -137t188.5 -47q98 0 213 47l25 176h172v-330q-276 -66 -447 -65q-262 0 -399 84t-137 246zM549 838v247h297v-247h-297z " />
<glyph unicode="&#xc0;" d="M25 0v174h61l375 1307h307l375 -1307h61v-174h-491v174h135l-68 234h-448l-66 -234h135v-174h-376zM293 1925h287l208 -321h-174zM381 580h350l-174 610h-2z" />
<glyph unicode="&#xc1;" d="M25 0v174h61l375 1307h307l375 -1307h61v-174h-491v174h135l-68 234h-448l-66 -234h135v-174h-376zM381 580h350l-174 610h-2zM442 1604l207 321h285l-320 -321h-172z" />
<glyph unicode="&#xc2;" d="M25 0v174h61l375 1307h307l375 -1307h61v-174h-491v174h135l-68 234h-448l-66 -234h135v-174h-376zM264 1604l207 321h285l209 -321h-160l-189 190h-2l-190 -190h-160zM381 580h350l-174 610h-2z" />
<glyph unicode="&#xc3;" d="M25 0v174h61l375 1307h307l375 -1307h61v-174h-491v174h135l-68 234h-448l-66 -234h135v-174h-376zM262 1604q2 168 50 244.5t151 76.5q66 0 127 -43l39 -27q23 -14 28 -20q59 -47 95 -47q63 0 65 137h148q-2 -168 -50.5 -244.5t-148.5 -76.5q-63 0 -127 43l-39 26 q-94 68 -125 68q-63 0 -65 -137h-148zM381 580h350l-174 610h-2z" />
<glyph unicode="&#xc4;" d="M25 0v174h61l375 1307h307l375 -1307h61v-174h-491v174h135l-68 234h-448l-66 -234h135v-174h-376zM281 1606v221h221v-221h-221zM381 580h350l-174 610h-2zM727 1606v221h221v-221h-221z" />
<glyph unicode="&#xc5;" d="M25 0v174h61l375 1307h307l375 -1307h61v-174h-491v174h135l-68 234h-448l-66 -234h135v-174h-376zM379 1716.5q0 98.5 67.5 167t166 68.5t167 -68.5t68.5 -167.5q0 -100 -68.5 -167.5t-169.5 -67.5q-96 0 -163.5 68.5t-67.5 167zM381 580h350l-174 610h-2zM489 1716 q0 -51 36 -88t87.5 -37t88 36t36.5 89t-36.5 89t-88 36t-87.5 -37t-36 -88z" />
<glyph unicode="&#xc6;" d="M12 0v172h62l393 1309h698v-322h-184v150h-147v-482h221v-172h-221v-471h174v160h184v-344h-629v408h-227l-66 -236h86v-172h-344zM385 580h178v608h-2z" />
<glyph unicode="&#xc7;" d="M49 731q0 354 192.5 570.5t510.5 216.5q178 0 399 -66v-428h-172l-27 258q-86 63 -188 64q-180 0 -286.5 -160t-106.5 -428q0 -285 118.5 -442.5t331.5 -157.5q154 0 361 102v-215q-199 -82 -410 -82q-332 0 -527.5 208t-195.5 560zM514 -311q66 -14 119 -15 q119 0 119 62q0 82 -195 82h-20l120 182h138l-76 -113q121 -14 176 -52t55 -103q0 -70 -71.5 -117t-178.5 -47q-78 0 -186 31v90z" />
<glyph unicode="&#xc8;" d="M37 0v172h147v1137h-147v172h1073v-371h-184v199h-445v-482h236v123h172v-420h-172v125h-236v-471h506v224h184v-408h-1134zM258 1925h287l209 -321h-174z" />
<glyph unicode="&#xc9;" d="M37 0v172h147v1137h-147v172h1073v-371h-184v199h-445v-482h236v123h172v-420h-172v125h-236v-471h506v224h184v-408h-1134zM506 1604l209 321h284l-321 -321h-172z" />
<glyph unicode="&#xca;" d="M37 0v172h147v1137h-147v172h1073v-371h-184v199h-445v-482h236v123h172v-420h-172v125h-236v-471h506v224h184v-408h-1134zM295 1604l209 321h284l209 -321h-159l-191 190h-2l-188 -190h-162z" />
<glyph unicode="&#xcb;" d="M37 0v172h147v1137h-147v172h1073v-371h-184v199h-445v-482h236v123h172v-420h-172v125h-236v-471h506v224h184v-408h-1134zM258 1606v221h221v-221h-221zM705 1606v221h221v-221h-221z" />
<glyph unicode="&#xcc;" d="M123 0v172h342v1137h-342v172h981v-172h-342v-1137h342v-172h-981zM293 1925h285l208 -321h-172z" />
<glyph unicode="&#xcd;" d="M123 0v172h342v1137h-342v172h981v-172h-342v-1137h342v-172h-981zM440 1604l209 321h285l-320 -321h-174z" />
<glyph unicode="&#xce;" d="M123 0v172h342v1137h-342v172h981v-172h-342v-1137h342v-172h-981zM262 1604l209 321h285l209 -321h-160l-191 190h-2l-190 -190h-160z" />
<glyph unicode="&#xcf;" d="M123 0v172h342v1137h-342v172h981v-172h-342v-1137h342v-172h-981zM281 1606v221h221v-221h-221zM725 1606v221h221v-221h-221z" />
<glyph unicode="&#xd0;" d="M0 670v172h135v467h-98v172h440q342 0 523.5 -182.5t181.5 -528.5q0 -369 -192.5 -569.5t-547.5 -200.5h-405v174h98v496h-135zM432 174h47q381 0 381 580q0 279 -94 415t-289 138l-45 2v-467h199v-172h-199v-496z" />
<glyph unicode="&#xd1;" d="M37 0v172h98v1137h-98v172h295l590 -1000v828h-150v172h445v-172h-99v-1309h-196l-590 993v-821h149v-172h-444zM258 1604q4 168 52 244.5t149 76.5q66 0 129 -43l37 -27q6 -4 13 -9t11 -8t6 -3q55 -47 93 -47q66 0 65 137h150q-4 -168 -52.5 -244.5t-148.5 -76.5 q-61 0 -127 43l-39 26q-25 16 -25 19q-70 49 -98 49q-65 0 -65 -137h-150z" />
<glyph unicode="&#xd2;" d="M49 741q0 375 146.5 576t419 201t419 -201t146.5 -578q0 -776 -572 -776q-268 0 -413.5 203t-145.5 575zM293 1925h285l208 -321h-172zM356 743q0 -608 265 -608q252 0 251 610q0 601 -258 601t-258 -603z" />
<glyph unicode="&#xd3;" d="M49 741q0 375 146.5 576t419 201t419 -201t146.5 -578q0 -776 -572 -776q-268 0 -413.5 203t-145.5 575zM356 743q0 -608 265 -608q252 0 251 610q0 601 -258 601t-258 -603zM442 1604l207 321h287l-322 -321h-172z" />
<glyph unicode="&#xd4;" d="M49 741q0 375 146.5 576t419 201t419 -201t146.5 -578q0 -776 -572 -776q-268 0 -413.5 203t-145.5 575zM262 1604l209 321h285l209 -321h-160l-191 190h-2l-188 -190h-162zM356 743q0 -608 265 -608q252 0 251 610q0 601 -258 601t-258 -603z" />
<glyph unicode="&#xd5;" d="M49 741q0 375 146.5 576t419 201t419 -201t146.5 -578q0 -776 -572 -776q-268 0 -413.5 203t-145.5 575zM262 1604q4 168 52 244.5t149 76.5q66 0 129 -43l37 -27q29 -20 30 -22q53 -45 95 -45q63 0 63 137h150q-2 -168 -50.5 -244.5t-150.5 -76.5q-63 0 -127 43l-39 26 l-10 8l-10 7l-7 4l-4 2q-2 2 -6 5t-8 7q-51 35 -78 35q-65 0 -65 -137h-150zM356 743q0 -608 265 -608q252 0 251 610q0 601 -258 601t-258 -603z" />
<glyph unicode="&#xd6;" d="M49 741q0 375 146.5 576t419 201t419 -201t146.5 -578q0 -776 -572 -776q-268 0 -413.5 203t-145.5 575zM281 1606v221h221v-221h-221zM356 743q0 -608 265 -608q252 0 251 610q0 601 -258 601t-258 -603zM725 1606v221h221v-221h-221z" />
<glyph unicode="&#xd7;" d="M125 260l348 348l-348 348l139 142l348 -350l351 350l139 -142l-348 -348l348 -348l-139 -139l-351 348l-348 -348z" />
<glyph unicode="&#xd8;" d="M49 -37l135 219q-135 215 -135 559q0 375 145.5 576t417.5 201q188 0 330 -105l66 105h172l-136 -218q135 -219 136 -561q0 -373 -145.5 -574.5t-418.5 -201.5q-184 0 -329 105l-66 -105h-172zM356 750q0 -182 13 -261v-8l440 715q-74 150 -195 150q-258 0 -258 -596z M420 285q74 -150 194 -150q256 0 256 602q0 186 -10 254v6z" />
<glyph unicode="&#xd9;" d="M20 1309v172h494v-172h-98v-742q0 -242 57 -336t207 -94q133 0 182 80t49 291v801h-98v172h395v-172h-98v-766q0 -287 -74 -398q-123 -182 -405 -182q-289 0 -426 172q-86 109 -86 361v813h-99zM344 1925h285l209 -321h-172z" />
<glyph unicode="&#xda;" d="M20 1309v172h494v-172h-98v-742q0 -242 57 -336t207 -94q133 0 182 80t49 291v801h-98v172h395v-172h-98v-766q0 -287 -74 -398q-123 -182 -405 -182q-289 0 -426 172q-86 109 -86 361v813h-99zM492 1604l208 321h285l-319 -321h-174z" />
<glyph unicode="&#xdb;" d="M20 1309v172h494v-172h-98v-742q0 -242 57 -336t207 -94q133 0 182 80t49 291v801h-98v172h395v-172h-98v-766q0 -287 -74 -398q-123 -182 -405 -182q-289 0 -426 172q-86 109 -86 361v813h-99zM313 1604l207 321h285l209 -321h-160l-190 190h-2l-189 -190h-160z" />
<glyph unicode="&#xdc;" d="M20 1309v172h494v-172h-98v-742q0 -242 57 -336t207 -94q133 0 182 80t49 291v801h-98v172h395v-172h-98v-766q0 -287 -74 -398q-123 -182 -405 -182q-289 0 -426 172q-86 109 -86 361v813h-99zM330 1606v221h221v-221h-221zM776 1606v221h221v-221h-221z" />
<glyph unicode="&#xdd;" d="M14 1309v172h543v-172h-96l244 -424l219 424h-103v172h396v-172h-87l-348 -660v-477h246v-172h-788v172h245v477l-379 660h-92zM508 1604l207 321h284l-319 -321h-172z" />
<glyph unicode="&#xde;" d="M37 0v172h199v1137h-199v172h690v-172h-195v-101h140q274 0 399 -94t125 -303q0 -240 -162 -378t-442 -138h-60v-123h195v-172h-690zM532 469h37q311 0 312 303q0 145 -63.5 204.5t-223.5 59.5h-62v-567z" />
<glyph unicode="&#xdf;" d="M43 0v174h86v893q0 279 118 409t367 130q360 0 361 -285q0 -121 -90 -229l-39 -50q-63 -78 -64 -118q0 -35 47 -78l43 -43l121 -107q217 -197 217 -379q0 -156 -104.5 -249t-278.5 -93q-88 0 -192 25v285h158l22 -131q23 -6 39 -7q96 0 96 127q0 74 -71 140l-37 35 l-150 135q-154 143 -153 252q0 74 73 200l41 70q61 111 62 188q0 137 -131 138q-92 0 -131 -73t-39 -247v-938h110v-174h-481z" />
<glyph unicode="&#xe0;" d="M86 287q0 184 152.5 281.5t441.5 97.5h90v112q0 90 -41 126t-147 36q-125 0 -230 -53l-20 -115h-172v254q254 84 473 84q231 0 332.5 -69.5t101.5 -227.5v-641h113v-172h-369l-41 104q-152 -129 -344 -129q-154 0 -247 85t-93 227zM311 1604h285l209 -322h-172zM387 303 q0 -133 139 -133q129 0 244 121v227h-45q-154 0 -246 -59.5t-92 -155.5z" />
<glyph unicode="&#xe1;" d="M86 287q0 184 152.5 281.5t441.5 97.5h90v112q0 90 -41 126t-147 36q-125 0 -230 -53l-20 -115h-172v254q254 84 473 84q231 0 332.5 -69.5t101.5 -227.5v-641h113v-172h-369l-41 104q-152 -129 -344 -129q-154 0 -247 85t-93 227zM387 303q0 -133 139 -133 q129 0 244 121v227h-45q-154 0 -246 -59.5t-92 -155.5zM459 1282l209 322h284l-321 -322h-172z" />
<glyph unicode="&#xe2;" d="M86 287q0 184 152.5 281.5t441.5 97.5h90v112q0 90 -41 126t-147 36q-125 0 -230 -53l-20 -115h-172v254q254 84 473 84q231 0 332.5 -69.5t101.5 -227.5v-641h113v-172h-369l-41 104q-152 -129 -344 -129q-154 0 -247 85t-93 227zM281 1282l208 322h285l209 -322h-160 l-190 191h-2l-191 -191h-159zM387 303q0 -133 139 -133q129 0 244 121v227h-45q-154 0 -246 -59.5t-92 -155.5z" />
<glyph unicode="&#xe3;" d="M86 287q0 184 152.5 281.5t441.5 97.5h90v112q0 90 -41 126t-147 36q-125 0 -230 -53l-20 -115h-172v254q254 84 473 84q231 0 332.5 -69.5t101.5 -227.5v-641h113v-172h-369l-41 104q-152 -129 -344 -129q-154 0 -247 85t-93 227zM254 1282q2 168 50 245t151 77 q66 0 127 -43l39 -25q16 -12 20 -14q4 -4 8 -6q55 -47 94 -48q63 0 66 136h147q-2 -168 -50 -245t-148 -77q-63 0 -127 43l-39 27l-12 8l-9 6q-10 6 -26 18q-47 35 -78 35q-64 0 -66 -137h-147zM387 303q0 -133 139 -133q129 0 244 121v227h-45q-154 0 -246 -59.5 t-92 -155.5z" />
<glyph unicode="&#xe4;" d="M86 287q0 184 152.5 281.5t441.5 97.5h90v112q0 90 -41 126t-147 36q-125 0 -230 -53l-20 -115h-172v254q254 84 473 84q231 0 332.5 -69.5t101.5 -227.5v-641h113v-172h-369l-41 104q-152 -129 -344 -129q-154 0 -247 85t-93 227zM291 1284v221h221v-221h-221zM387 303 q0 -133 139 -133q129 0 244 121v227h-45q-154 0 -246 -59.5t-92 -155.5zM735 1284v221h221v-221h-221z" />
<glyph unicode="&#xe5;" d="M86 287q0 184 152.5 281.5t441.5 97.5h90v112q0 90 -41 126t-147 36q-125 0 -230 -53l-20 -115h-172v254q254 84 473 84q231 0 332.5 -69.5t101.5 -227.5v-641h113v-172h-369l-41 104q-152 -129 -344 -129q-154 0 -247 85t-93 227zM387 303q0 -133 139 -133 q129 0 244 121v227h-45q-154 0 -246 -59.5t-92 -155.5zM397 1517.5q0 98.5 67.5 167t166 68.5t167 -68.5t68.5 -166.5q0 -100 -68.5 -168t-168.5 -68q-96 0 -164 68.5t-68 167zM508 1517.5q0 -51.5 36 -88t87 -36.5q53 0 89 36.5t36 88t-36 88t-89 36.5q-51 0 -87 -36.5 t-36 -88z" />
<glyph unicode="&#xe6;" d="M49 313q0 328 342 328h86v133q0 160 -92 160q-41 0 -94 -35l-21 -96h-143v233q168 74 303 74q125 0 217 -115q92 115 215 115q317 0 318 -555v-86h-457q2 -150 54 -217.5t161 -67.5q115 1 242 54v-201q-184 -61 -303 -62q-197 0 -320 177q-45 -92 -100.5 -134.5 t-130.5 -42.5q-119 0 -198 96.5t-79 241.5zM295 326q0 -111 82 -111q53 0 100 76v178h-28q-154 0 -154 -143zM725 641h209l-2 25q-6 158 -24.5 216t-61.5 58q-101 0 -121 -299z" />
<glyph unicode="&#xe7;" d="M61 541q0 264 183.5 416.5t503.5 152.5q217 0 419 -55v-365h-172l-24 203q-113 47 -234 47q-362 0 -362 -371q0 -195 104.5 -296t304.5 -101q148 0 396 94v-215q-229 -76 -447 -76q-315 0 -493.5 149.5t-178.5 416.5zM469 -311q66 -14 119 -15q119 0 119 62q0 82 -195 82 h-18l120 182h136l-76 -113q121 -14 176 -52t55 -103q0 -70 -71.5 -117t-176.5 -47q-78 0 -188 31v90z" />
<glyph unicode="&#xe8;" d="M61 535q0 258 160 416.5t420 158.5q248 0 382 -148.5t134 -422.5v-58h-786q16 -92 41.5 -143t76.5 -92q98 -76 265 -76q163 0 413 84v-203q-242 -76 -471 -76q-299 0 -467 148.5t-168 411.5zM342 1604h285l209 -322h-172zM377 653h481q-2 133 -62.5 207t-166.5 74 q-113 0 -178.5 -74t-73.5 -207z" />
<glyph unicode="&#xe9;" d="M61 535q0 258 160 416.5t420 158.5q248 0 382 -148.5t134 -422.5v-58h-786q16 -92 41.5 -143t76.5 -92q98 -76 265 -76q163 0 413 84v-203q-242 -76 -471 -76q-299 0 -467 148.5t-168 411.5zM377 653h481q-2 133 -62.5 207t-166.5 74q-113 0 -178.5 -74t-73.5 -207z M489 1282l209 322h285l-321 -322h-173z" />
<glyph unicode="&#xea;" d="M61 535q0 258 160 416.5t420 158.5q248 0 382 -148.5t134 -422.5v-58h-786q16 -92 41.5 -143t76.5 -92q98 -76 265 -76q163 0 413 84v-203q-242 -76 -471 -76q-299 0 -467 148.5t-168 411.5zM313 1282l209 322h285l209 -322h-160l-190 191h-2l-191 -191h-160zM377 653 h481q-2 133 -62.5 207t-166.5 74q-113 0 -178.5 -74t-73.5 -207z" />
<glyph unicode="&#xeb;" d="M61 535q0 258 160 416.5t420 158.5q248 0 382 -148.5t134 -422.5v-58h-786q16 -92 41.5 -143t76.5 -92q98 -76 265 -76q163 0 413 84v-203q-242 -76 -471 -76q-299 0 -467 148.5t-168 411.5zM330 1284v221h221v-221h-221zM377 653h481q-2 133 -62.5 207t-166.5 74 q-113 0 -178.5 -74t-73.5 -207zM774 1284v221h221v-221h-221z" />
<glyph unicode="&#xec;" d="M139 0v172h371v741h-371v172h668v-913h369v-172h-1037zM311 1604h285l209 -322h-172z" />
<glyph unicode="&#xed;" d="M139 0v172h371v741h-371v172h668v-913h369v-172h-1037zM510 1282l209 322h285l-322 -322h-172z" />
<glyph unicode="&#xee;" d="M139 0v172h371v741h-371v172h668v-913h369v-172h-1037zM307 1282l209 322h285l209 -322h-160l-191 191h-2l-190 -191h-160z" />
<glyph unicode="&#xef;" d="M139 0v172h371v741h-371v172h668v-913h369v-172h-1037zM324 1284v221h221v-221h-221zM770 1284v221h221v-221h-221z" />
<glyph unicode="&#xf0;" d="M70 526q0 238 144 392.5t366 154.5q59 0 141 -18q-68 127 -207 213l-244 -203l-106 131l186 158q-125 37 -248 39h-32v186q246 0 454 -76l215 189l109 -133l-158 -138q227 -133 352 -350t125 -477q0 -281 -151.5 -450t-401.5 -169q-244 0 -394 152t-150 399zM373 524 q0 -166 69.5 -265t184.5 -99q117 0 178 98t61 285q1 346 -239 346q-115 0 -184.5 -99.5t-69.5 -265.5z" />
<glyph unicode="&#xf1;" d="M37 0v172h104v741h-104v172h389v-161q96 109 174 147.5t201 38.5q158 0 225.5 -85t67.5 -280v-573h104v-172h-518v172h129v473q0 137 -28.5 187.5t-104.5 50.5q-115 0 -250 -172v-539h129v-172h-518zM227 1282q2 168 50.5 245t150.5 77q66 0 127 -43l39 -25 q16 -12 20 -14q4 -4 9 -6q55 -47 94 -48q63 0 65 136h148q-2 -168 -50.5 -245t-148.5 -77q-63 0 -127 43l-39 27l-12 8l-8 6q-10 6 -27 18q-47 35 -78 35q-63 0 -65 -137h-148z" />
<glyph unicode="&#xf2;" d="M61 543q0 252 154 409.5t399.5 157.5t399 -157.5t153.5 -409.5q0 -254 -154.5 -411t-404.5 -157q-242 0 -394.5 159t-152.5 409zM293 1604h285l208 -322h-172zM369 543q0 -182 66.5 -289t178.5 -107q244 0 244 394q0 182 -65.5 289.5t-178 107.5t-179 -107.5 t-66.5 -287.5z" />
<glyph unicode="&#xf3;" d="M61 543q0 252 154 409.5t399.5 157.5t399 -157.5t153.5 -409.5q0 -254 -154.5 -411t-404.5 -157q-242 0 -394.5 159t-152.5 409zM369 543q0 -182 66.5 -289t178.5 -107q244 0 244 394q0 182 -65.5 289.5t-178 107.5t-179 -107.5t-66.5 -287.5zM442 1282l209 322h285 l-322 -322h-172z" />
<glyph unicode="&#xf4;" d="M61 543q0 252 154 409.5t399.5 157.5t399 -157.5t153.5 -409.5q0 -254 -154.5 -411t-404.5 -157q-242 0 -394.5 159t-152.5 409zM264 1282l209 322h285l209 -322h-160l-191 191h-2l-190 -191h-160zM369 543q0 -182 66.5 -289t178.5 -107q244 0 244 394q0 182 -65.5 289.5 t-178 107.5t-179 -107.5t-66.5 -287.5z" />
<glyph unicode="&#xf5;" d="M61 543q0 252 154 409.5t399.5 157.5t399 -157.5t153.5 -409.5q0 -254 -154.5 -411t-404.5 -157q-242 0 -394.5 159t-152.5 409zM262 1282q2 168 50 245t151 77q66 0 127 -43l39 -25q16 -12 20 -14q4 -4 8 -6q55 -47 95 -48q63 0 65 136h148q-2 -168 -50.5 -245 t-148.5 -77q-63 0 -127 43l-39 27l-12 8l-8 6q-10 6 -27 18q-47 35 -78 35q-63 0 -65 -137h-148zM369 543q0 -182 66.5 -289t178.5 -107q244 0 244 394q0 182 -65.5 289.5t-178 107.5t-179 -107.5t-66.5 -287.5z" />
<glyph unicode="&#xf6;" d="M61 543q0 252 154 409.5t399.5 157.5t399 -157.5t153.5 -409.5q0 -254 -154.5 -411t-404.5 -157q-242 0 -394.5 159t-152.5 409zM281 1284v221h221v-221h-221zM369 543q0 -182 66.5 -289t178.5 -107q244 0 244 394q0 182 -65.5 289.5t-178 107.5t-179 -107.5 t-66.5 -287.5zM725 1284v221h221v-221h-221z" />
<glyph unicode="&#xf7;" d="M102 518v199h1024v-199h-1024zM467 0v297h297v-297h-297zM467 938v297h297v-297h-297z" />
<glyph unicode="&#xf8;" d="M61 -25l140 172q-139 168 -140 396q0 252 154 409.5t397 157.5q162 0 303 -82l78 94h174l-145 -178q145 -168 145 -401q0 -252 -153.5 -410t-399.5 -158q-160 0 -309 86l-69 -86h-175zM369 547q0 -84 20 -168l385 475q-76 84 -160 84q-113 0 -179 -106.5t-66 -284.5z M446 236q70 -88 168 -89q111 0 177.5 106.5t66.5 285.5q0 84 -20 178z" />
<glyph unicode="&#xf9;" d="M31 913v172h389v-645q0 -137 27.5 -188t105.5 -51q117 0 250 174v538h-129v172h413v-913h105v-172h-389v160q-98 -109 -175 -147t-200 -38q-158 0 -225.5 85t-67.5 280v573h-104zM291 1604h284l209 -322h-172z" />
<glyph unicode="&#xfa;" d="M31 913v172h389v-645q0 -137 27.5 -188t105.5 -51q117 0 250 174v538h-129v172h413v-913h105v-172h-389v160q-98 -109 -175 -147t-200 -38q-158 0 -225.5 85t-67.5 280v573h-104zM438 1282l209 322h285l-322 -322h-172z" />
<glyph unicode="&#xfb;" d="M31 913v172h389v-645q0 -137 27.5 -188t105.5 -51q117 0 250 174v538h-129v172h413v-913h105v-172h-389v160q-98 -109 -175 -147t-200 -38q-158 0 -225.5 85t-67.5 280v573h-104zM260 1282l209 322h285l209 -322h-160l-191 191h-2l-190 -191h-160z" />
<glyph unicode="&#xfc;" d="M31 913v172h389v-645q0 -137 27.5 -188t105.5 -51q117 0 250 174v538h-129v172h413v-913h105v-172h-389v160q-98 -109 -175 -147t-200 -38q-158 0 -225.5 85t-67.5 280v573h-104zM279 1284v221h221v-221h-221zM723 1284v221h221v-221h-221z" />
<glyph unicode="&#xfd;" d="M12 913v172h584v-172h-147l229 -518l237 518h-145v172h447v-172h-103l-526 -1136h200v-172h-684v172h197l203 256l-391 880h-101zM506 1282l209 322h284l-321 -322h-172z" />
<glyph unicode="&#xfe;" d="M37 -221h98v1626h-98v174h395v-655q78 98 159 142t181 44q182 0 288.5 -143.5t106.5 -386.5q0 -289 -138 -447t-392 -158q-84 0 -205 25v-221h123v-174h-518v174zM432 203l27 -6q76 -20 151 -21q260 0 260 371q0 336 -196 336q-127 0 -242 -172v-508z" />
<glyph unicode="&#xff;" d="M12 913v172h584v-172h-147l229 -518l237 518h-145v172h447v-172h-103l-526 -1136h200v-172h-684v172h197l203 256l-391 880h-101zM346 1284v221h221v-221h-221zM791 1284v221h221v-221h-221z" />
<glyph unicode="&#x152;" d="M25 731q0 786 376 787q96 0 172 -70v33h588v-346h-143v174h-209v-482h113v123h143v-420h-143v125h-113v-471h246v174h143v-358h-625v35q-86 -72 -174 -72q-184 0 -279 195.5t-95 572.5zM291 735q0 -250 12 -373.5t44 -175t93 -51.5q76 0 104.5 75.5t28.5 278.5v525 q0 186 -28.5 259t-104.5 73q-61 0 -93 -51.5t-44 -177.5t-12 -382z" />
<glyph unicode="&#x153;" d="M33 543q0 266 98 416.5t275 150.5q135 0 258 -125q86 125 215 125q301 0 301 -575v-66h-416q16 -145 69.5 -210.5t155.5 -65.5q87 0 191 59v-209q-121 -68 -254 -68q-160 0 -283 111q-90 -111 -233 -111q-178 0 -277.5 149.5t-99.5 418.5zM299 537q0 -389 117 -390 q98 0 98 281v227q0 283 -98 283q-117 0 -117 -401zM764 641h174q-2 299 -80 299q-94 0 -94 -272v-27z" />
<glyph unicode="&#x178;" d="M14 1309v172h543v-172h-96l244 -424l219 424h-103v172h396v-172h-87l-348 -660v-477h246v-172h-788v172h245v477l-379 660h-92zM346 1606v221h221v-221h-221zM791 1606v221h221v-221h-221z" />
<glyph unicode="&#x2c6;" d="M264 1282l209 322h285l209 -322h-160l-191 191h-2l-190 -191h-160z" />
<glyph unicode="&#x2dc;" d="M262 1282q2 168 50 245t151 77q66 0 127 -43l39 -25q16 -12 20 -14q4 -4 8 -6q55 -47 95 -48q63 0 65 136h148q-2 -168 -50.5 -245t-148.5 -77q-63 0 -127 43l-39 27l-12 8l-8 6q-10 6 -27 18q-47 35 -78 35q-63 0 -65 -137h-148z" />
<glyph unicode="&#x2000;" horiz-adv-x="976" />
<glyph unicode="&#x2001;" horiz-adv-x="1952" />
<glyph unicode="&#x2002;" horiz-adv-x="976" />
<glyph unicode="&#x2003;" horiz-adv-x="1952" />
<glyph unicode="&#x2004;" horiz-adv-x="650" />
<glyph unicode="&#x2005;" horiz-adv-x="488" />
<glyph unicode="&#x2006;" horiz-adv-x="325" />
<glyph unicode="&#x2007;" horiz-adv-x="325" />
<glyph unicode="&#x2008;" horiz-adv-x="244" />
<glyph unicode="&#x2009;" horiz-adv-x="390" />
<glyph unicode="&#x200a;" horiz-adv-x="108" />
<glyph unicode="&#x2010;" d="M147 518v199h934v-199h-934z" />
<glyph unicode="&#x2011;" d="M147 518v199h934v-199h-934z" />
<glyph unicode="&#x2012;" d="M147 518v199h934v-199h-934z" />
<glyph unicode="&#x2013;" d="M121 532v148h987v-148h-987z" />
<glyph unicode="&#x2014;" d="M0 532v148h1229v-148h-1229z" />
<glyph unicode="&#x2018;" d="M442 938v266q0 203 75 289t249 86h20v-123h-14q-66 0 -90.5 -36t-30.5 -138h135v-344h-344z" />
<glyph unicode="&#x2019;" d="M442 938v123h15q63 0 87.5 36t33.5 138h-136v344h344v-266q0 -205 -73 -291q-35 -41 -103.5 -65.5t-132.5 -20.5l-14 2h-21z" />
<glyph unicode="&#x201a;" horiz-adv-x="1337" d="M512 0v344h344v-266q0 -203 -74.5 -289t-249.5 -86h-20v123h14q63 0 88 36t33 138h-135z" />
<glyph unicode="&#x201c;" d="M195 987v268q0 324 276 324h21v-111l-19 2h-6q-47 2 -74.5 -37.5t-25.5 -103.5v-6l2 -39h123v-297h-297zM737 987v268q0 324 277 324h20v-111l-18 2h-6q-98 -2 -101 -147l2 -39h123v-297h-297z" />
<glyph unicode="&#x201d;" d="M195 987v111h18q59 0 86 45q25 45 20 94v6l-2 39h-122v297h297v-268q0 -324 -277 -324h-20zM737 987v111h19q59 0 86 45q25 45 20 94v6l-2 39h-123v297h297v-268q0 -324 -276 -324h-21z" />
<glyph unicode="&#x201e;" horiz-adv-x="1337" d="M311 0v297h297v-268q0 -324 -276 -324h-21v111h19q57 8 79.5 37.5t26.5 101.5v6l-2 39h-123zM854 0v297h297v-268q0 -324 -277 -324h-20v111h18q57 8 80 37.5t27 101.5v6l-2 39h-123z" />
<glyph unicode="&#x2022;" d="M338 846q0 115 80.5 195.5t197.5 80.5q115 0 196 -80.5t81 -197.5t-82 -197t-201 -80q-113 0 -192.5 82t-79.5 197z" />
<glyph unicode="&#x2026;" d="M82 0v248h248v-248h-248zM492 0v248h245v-248h-245zM901 0v248h248v-248h-248z" />
<glyph unicode="&#x202f;" horiz-adv-x="390" />
<glyph unicode="&#x2039;" d="M270 543l559 432l109 -133l-295 -297l293 -295l-111 -137z" />
<glyph unicode="&#x203a;" d="M289 248l297 297l-295 293l112 137l553 -430l-557 -432z" />
<glyph unicode="&#x205f;" horiz-adv-x="488" />
<glyph unicode="&#x20ac;" d="M25 492l61 149h72q-6 88 -6 100q0 10 1 31t3 48.5t2 43.5h-133l61 148h102q41 127 84 202.5t113 139.5q182 166 481 166q141 0 314 -41v-205q-199 72 -310 72q-150 0 -251 -87.5t-142 -246.5h604l-61 -148h-563q-8 -86 -8 -94q0 -37 -3 -39v-29l3 -6v-55h479l-62 -149 h-393q43 -158 149.5 -245t256.5 -87q117 0 301 84v-215q-190 -66 -355 -66q-492 0 -643 529h-157z" />
<glyph unicode="&#x2122;" d="M49 1284v197h457v-197h-86v98h-76v-544h76v-99h-285v99h74v544h-74v-98h-86zM543 739v99h53v544h-53v99h241l86 -420l80 420h242v-99h-55v-544h55v-99h-184v617l-107 -568h-92l-115 562v-611h-151z" />
<glyph unicode="&#x25fc;" horiz-adv-x="1085" d="M0 0v1085h1085v-1085h-1085z" />
<glyph unicode="&#xfb01;" d="M37 0v174h104v715h-104v172h104v131q0 193 108.5 302.5t301.5 109.5q98 0 197 -37v-285h-175l-22 135q-14 12 -31 13q-94 0 -94 -203v-166h668v-887h104v-174h-493v174h106v715h-385v-715h104v-174h-493zM848 1282v297h246v-297h-246z" />
<glyph unicode="&#xfb02;" d="M37 0v174h104v715h-104v172h104v119q0 424 402 424q86 0 190 -15q78 -10 88 -10h273v-1405h104v-174h-493v174h106v1174q-158 80 -231 79q-154 0 -154 -213v-153h270v-172h-270v-715h104v-174h-493z" />
</font>
</defs>
</svg>
