<?xml version="1.0" standalone="no"?>
<!DOCTYPE svg PUBLIC "-//W3C//DTD SVG 1.1//EN" "http://www.w3.org/Graphics/SVG/1.1/DTD/svg11.dtd" >
<svg xmlns="http://www.w3.org/2000/svg">
<metadata></metadata>
<defs>
<font id="luxi_monoboldoblique" horiz-adv-x="1228" >
<font-face units-per-em="2048" ascent="1638" descent="-410" />
<missing-glyph horiz-adv-x="500" />
<glyph horiz-adv-x="0" />
<glyph unicode="&#xd;" horiz-adv-x="681" />
<glyph unicode=" " />
<glyph unicode="!" d="M467 0l49 248h295l-47 -248h-297zM612 420l93 764l59 297h295l-60 -297l-217 -764h-170z" />
<glyph unicode="&#x22;" d="M453 1036l59 543h295l-158 -543h-196zM995 1036l60 543h295l-158 -543h-197z" />
<glyph unicode="#" d="M135 432l68 172h213l121 273h-226l72 172h231l199 432h176l-192 -432h207l192 432h178l-194 -432h209l-68 -172h-217l-123 -273h231l-69 -172h-240l-196 -432h-181l197 432h-207l-197 -432h-178l197 432h-203zM596 604h205l123 273h-207z" />
<glyph unicode="$" d="M121 55l65 326h172l-4 -150q84 -39 162 -55l102 510q-145 121 -199 200t-54 171q0 166 138 285.5t349 136.5l39 198h174l-39 -198q127 -14 252 -49l-57 -295h-172l4 151q-31 14 -64 17l-92 -469q139 -111 197.5 -193t58.5 -166q0 -186 -131 -311t-369 -164l-39 -197h-174 l39 197q-192 16 -358 55zM639 1108q0 -68 109 -154l69 346q-82 -12 -130 -64t-48 -128zM688 180l25 4q68 10 112.5 71.5t44.5 139.5q0 86 -104 174z" />
<glyph unicode="%" d="M39 -37l1292 1555h158l-1294 -1555h-156zM211 1016q0 188 119.5 326.5t283.5 138.5q121 0 190.5 -74t69.5 -203q0 -188 -120.5 -325.5t-286.5 -137.5q-119 0 -187.5 74t-68.5 201zM442 1014q0 -100 62 -101q53 0 96 89.5t43 201.5q0 105 -61 105q-53 0 -96.5 -90.5 t-43.5 -204.5zM651 274q0 188 120 326.5t284 138.5q121 0 190.5 -74.5t69.5 -201.5q0 -186 -122 -324.5t-286 -138.5q-119 0 -187.5 73.5t-68.5 200.5zM883 270q0 -98 59 -98q55 0 97 89t42 204q0 102 -59 102q-53 0 -96 -91t-43 -206z" />
<glyph unicode="&#x26;" d="M123 305q0 188 113.5 345t316.5 249q-47 154 -47 236q0 162 111.5 272.5t275.5 110.5q115 0 181.5 -66t66.5 -178q0 -127 -81 -233.5t-259 -211.5q55 -225 155 -448q88 125 119 299h-102l35 172h378l-34 -172h-109q-57 -248 -221 -436l41 -70h127l-37 -174h-274l-43 88 q-158 -125 -355 -125q-170 0 -264 90t-94 252zM377 412q0 -236 231 -236q86 0 156 43q-121 297 -176 526q-111 -61 -161 -141t-50 -192zM737 1184q0 -63 25 -183l4 -20q152 152 152 285q0 80 -68 80q-113 0 -113 -162z" />
<glyph unicode="'" d="M709 963l49 616h346l-197 -616h-198z" />
<glyph unicode="(" d="M305 424q0 215 81 422t226 371q174 193 404 290q152 66 338 72l-35 -172q-152 -29 -261.5 -94.5t-209.5 -184.5q-250 -303 -250 -712q0 -248 156 -410q106 -106 260 -129l-35 -174q-272 8 -444 164q-229 211 -230 557z" />
<glyph unicode=")" d="M137 -297l35 174q152 29 262.5 94.5t208.5 184.5q250 301 250 710q0 252 -156 410q-104 104 -260 131l35 172q268 -6 444 -164q229 -211 230 -555q0 -215 -81 -422t-226 -370q-317 -352 -742 -365z" />
<glyph unicode="*" d="M360 1038l125 254l258 -174q-45 -41 -51 -96zM403 737l297 230q18 -43 70 -56l-170 -315zM778 1481h266l-151 -332q-29 12 -49 12t-51 -10zM819 911q51 8 94 56l209 -224l-250 -151zM932 1114l332 180l18 -256l-338 -12q4 20 4 29q0 34 -16 59z" />
<glyph unicode="+" d="M203 518l39 199h417l84 416h197l-84 -416h418l-41 -199h-416l-84 -418h-196l84 418h-418z" />
<glyph unicode="," d="M373 -346l24 123h15q72 0 104.5 43t61.5 180h-136l68 344h346l-57 -283q-47 -229 -135.5 -318t-270.5 -89h-20z" />
<glyph unicode="-" d="M252 518l39 199h934l-41 -199h-932z" />
<glyph unicode="." d="M442 0l70 344h346l-72 -344h-344z" />
<glyph unicode="/" d="M-59 -297l1384 1876h219l-1384 -1876h-219z" />
<glyph unicode="0" d="M207 451q0 340 139 639q96 205 246 317.5t326 112.5q197 0 301 -127t104 -365q0 -152 -38 -325t-103 -312q-94 -205 -246 -316.5t-336 -111.5q-186 0 -289.5 128t-103.5 360zM512 375q0 -240 137 -240q152 0 256 334q45 145 79 335.5t34 303.5q0 240 -133 240 q-168 0 -277 -392q-41 -145 -68.5 -314t-27.5 -267z" />
<glyph unicode="1" d="M147 0l35 172h340l205 1030l-360 -100l34 172l684 231l-266 -1333h344l-35 -172h-981z" />
<glyph unicode="2" d="M188 0l43 211q88 127 254 287l265 252q254 242 254 426q0 170 -181 170q-88 0 -192 -43l-62 -201h-155l69 342q215 76 402 76q389 0 389 -318q0 -117 -54.5 -226.5t-152.5 -189.5l-129 -102l-133 -109q-205 -168 -285 -327h567l-49 -248h-850z" />
<glyph unicode="3" d="M176 14l62 314h186l-8 -158q96 -33 157 -33q121 0 203 89t82 220q0 246 -311 246h-101l35 172h99q172 0 276.5 88t104.5 236q0 158 -160 158q-55 0 -144 -29l-55 -158h-184l57 297q227 61 406 62q188 0 295.5 -77t107.5 -214q0 -147 -111.5 -260t-314.5 -172 q150 -29 236 -117t86 -215q0 -211 -188.5 -355.5t-463.5 -144.5q-127 0 -352 51z" />
<glyph unicode="4" d="M154 408l39 192l808 899h271l-176 -881h172l-41 -210h-174l-45 -236h147l-35 -172h-690l35 172h270l47 236h-628zM430 618h395l113 568z" />
<glyph unicode="5" d="M238 18l61 310h184l-6 -156q57 -35 113 -35q115 0 191.5 98.5t76.5 243.5q0 260 -338 260q-53 0 -108 -6l149 748h807l-51 -246h-631l-63 -320q565 -10 565 -389q0 -231 -187.5 -397t-451.5 -166q-129 0 -311 55z" />
<glyph unicode="6" d="M223 463q0 430 264 764q236 291 555 291q134 0 324 -43l-61 -316h-185l6 158q-59 29 -118 29q-154 0 -264.5 -142.5t-159.5 -404.5q162 170 348 170q154 0 241 -96.5t87 -266.5q0 -264 -179.5 -453.5t-431.5 -189.5q-207 0 -316.5 129t-109.5 371zM537 324 q0 -188 141 -189q104 0 181 133t77 314q0 178 -133 178q-109 0 -187.5 -128t-78.5 -308z" />
<glyph unicode="7" d="M193 0q39 170 152.5 345t399.5 509l330 381h-700l49 246h971l-41 -197l-209 -229q-508 -553 -635 -1055h-317z" />
<glyph unicode="8" d="M168 289q0 145 94 267t299 243q-84 70 -119.5 127t-35.5 125q0 197 156.5 332t383.5 135q176 0 268.5 -71t92.5 -204q0 -109 -72 -207t-236 -213q127 -88 182.5 -166.5t55.5 -173.5q0 -207 -188.5 -363.5t-438.5 -156.5q-203 0 -322.5 88t-119.5 238zM471 336 q0 -92 56.5 -146.5t150.5 -54.5q104 0 182 74t78 172q0 78 -141 203l-129 112q-197 -172 -197 -360zM692 1137q0 -72 90 -158l80 -76q170 168 170 309q0 133 -137 134q-86 0 -144.5 -60.5t-58.5 -148.5z" />
<glyph unicode="9" d="M162 8l63 314h185l-7 -158q61 -27 119 -27q156 0 265.5 141.5t156.5 403.5q-158 -170 -346 -170q-154 0 -241 96.5t-87 265.5q0 266 179.5 455t431.5 189q207 0 316.5 -128t109.5 -372q0 -432 -267 -764q-233 -291 -553 -291q-139 0 -325 45zM594 899q0 -178 133 -178 q109 0 187.5 128t78.5 306q0 191 -141 191q-104 0 -181 -133.5t-77 -313.5z" />
<glyph unicode=":" d="M442 0l70 344h346l-72 -344h-344zM590 739l69 346h347l-70 -346h-346z" />
<glyph unicode=";" d="M373 -346l24 123h15q72 0 104.5 43t61.5 180h-136l68 344h346l-57 -283q-47 -229 -135.5 -318t-270.5 -89h-20zM590 739l69 346h347l-72 -346h-344z" />
<glyph unicode="&#x3c;" d="M223 623l1153 612l-43 -223l-733 -389l576 -398l-46 -225z" />
<glyph unicode="=" d="M164 307l39 199h1024l-39 -199h-1024zM248 729l39 197h1024l-39 -197h-1024z" />
<glyph unicode="&#x3e;" d="M98 0l43 221l733 389l-575 398l45 227l907 -625z" />
<glyph unicode="?" d="M352 1122l66 330q291 66 456 66q477 0 478 -273q0 -170 -187 -297l-82 -55l-67 -47q-125 -92 -172 -158.5t-74 -187.5l-16 -80h-295l8 39q29 135 87 216t220 208l70 53q180 137 180 258q0 152 -219 152q-104 0 -219 -46l-62 -178h-172zM375 0l49 248h297l-51 -248h-295z " />
<glyph unicode="@" d="M172 526q0 403 246 698.5t594 295.5q358 0 358 -267q0 -72 -22 -184l-119 -600h86l-35 -172h-260l61 309h-12l-25 -43q-96 -158 -170.5 -220t-166.5 -62q-199 0 -199 256q0 250 164 444.5t375 194.5q49 0 139 -21v16q0 186 -230 187q-244 0 -424 -244 q-182 -242 -182 -559q0 -201 100.5 -316.5t274.5 -115.5q116 0 272 63l-34 -180q-143 -43 -263 -43q-250 0 -389 148.5t-139 414.5zM711 569q0 -113 67 -112q63 0 147.5 101.5t213.5 330.5l24 123q-70 25 -131 24q-135 0 -228 -135t-93 -332z" />
<glyph unicode="A" d="M25 0l34 174h62l637 1307h305l115 -1307h61l-35 -174h-491l35 174h135l-21 234h-448l-115 -234h137l-35 -174h-376zM498 580h350l-53 610h-2z" />
<glyph unicode="B" d="M37 0l35 174h98l227 1135h-100l37 172h555q250 0 350 -57.5t100 -200.5q0 -152 -96 -257.5t-309 -189.5q164 -43 235.5 -118.5t71.5 -204.5q0 -209 -164 -331t-444 -122h-596zM465 174h82q190 0 280.5 66.5t90.5 208.5q0 231 -302 231h-49zM602 852h43q152 0 259.5 91 t107.5 222q0 84 -54.5 114t-212.5 30h-53z" />
<glyph unicode="C" d="M184 541q0 391 260 692q246 285 625 285q182 0 381 -66l-84 -428h-174l27 258q-76 63 -179 64q-217 0 -374.5 -238t-157.5 -565q0 -178 96 -281.5t260 -103.5q148 0 379 102l-43 -215q-217 -82 -428 -82q-281 0 -434.5 150.5t-153.5 427.5z" />
<glyph unicode="D" d="M37 0l35 174h98l227 1135h-98l35 172h438q582 0 582 -520q0 -344 -207 -621q-250 -340 -705 -340h-405zM467 174h45q137 0 244.5 83t175.5 241q104 242 104 499q0 158 -71.5 233t-227.5 77l-43 2z" />
<glyph unicode="E" d="M37 0l35 172h147l227 1137h-147l35 172h1071l-74 -371h-184l41 199h-445l-96 -482h234l24 123h172l-84 -420h-172l25 125h-234l-94 -471h506l45 224h184l-82 -408h-1134z" />
<glyph unicode="F" d="M37 0l35 172h147l227 1137h-147l35 172h1122l-74 -371h-186l39 199h-492l-106 -533h283l24 125h174l-84 -420h-174l27 123h-285l-84 -420h199l-39 -184h-641z" />
<glyph unicode="G" d="M184 543q0 397 258 686t621 289q166 0 375 -66l-86 -428h-172l26 258q-76 63 -172 64q-211 0 -369.5 -240t-158.5 -557q0 -170 87 -279.5t224 -109.5q41 0 98 10l70 342h-186l35 172h481l-127 -635q-217 -86 -438 -86q-266 0 -416 153.5t-150 426.5z" />
<glyph unicode="H" d="M37 0l35 174h98l227 1135h-98l35 172h493l-34 -172h-101l-90 -457h365l92 457h-98l34 172h492l-35 -172h-96l-228 -1135h99l-35 -174h-494l35 174h98l99 494h-365l-100 -494h100l-35 -174h-493z" />
<glyph unicode="I" d="M123 0l35 172h344l225 1137h-342l35 172h981l-35 -172h-342l-227 -1137h344l-37 -172h-981z" />
<glyph unicode="J" d="M117 31l96 487h174l-39 -319q84 -61 158 -62q92 0 139 58.5t76 207.5l182 906h-321l34 172h865l-35 -172h-248l-184 -926q-84 -420 -522 -420q-131 0 -302 47z" />
<glyph unicode="K" d="M37 0l35 174h98l227 1135h-100l37 172h491l-32 -172h-101l-104 -531h24l541 531h-111l35 172h445l-35 -172h-117l-502 -490l355 -645h41l-35 -174h-490l33 174h125l-299 543h-23l-110 -543h100l-35 -174h-493z" />
<glyph unicode="L" d="M49 0l35 172h197l227 1137h-197l35 172h690l-35 -172h-196l-225 -1125h477l61 310h160l-98 -494h-1131z" />
<glyph unicode="M" d="M12 0l35 172h74l227 1137h-74l35 172h369l37 -963l436 963h360l-32 -172h-68l-227 -1137h67l-34 -172h-439l35 172h137l183 926h-7l-409 -914h-201l-35 840h-4l-170 -852h111l-35 -172h-371z" />
<glyph unicode="N" d="M37 0l35 172h98l227 1137h-98l35 172h297l387 -1000l164 828h-148l35 172h444l-34 -172h-99l-262 -1309h-196l-390 993l-163 -821h147l-35 -172h-444z" />
<glyph unicode="O" d="M168 455q0 326 137 626q98 213 256 325t359 112q440 0 440 -492q0 -328 -139 -629q-201 -434 -625 -434q-428 0 -428 492zM463 414q0 -279 190 -279q199 0 310 371q39 125 69.5 298t30.5 263q0 279 -180 279q-231 0 -342 -451q-78 -315 -78 -481z" />
<glyph unicode="P" d="M37 0l35 172h196l228 1137h-197l35 172h633q246 0 351 -69t105 -230q0 -266 -203.5 -440.5t-514.5 -174.5h-62l-78 -395h295l-33 -172h-790zM678 739h39q180 0 282.5 104.5t102.5 289.5q0 98 -54.5 137t-193.5 39h-61z" />
<glyph unicode="Q" d="M168 457q0 328 137 624q98 213 256 325t359 112q440 0 440 -502q0 -217 -59.5 -420t-167.5 -350q-102 -139 -275 -236q180 -80 350 -90q-100 -158 -239 -285q-189 84 -310 328h-16q-475 0 -475 494zM463 416q0 -279 190 -279q199 0 310 369q39 125 69.5 298t30.5 263 q0 279 -180 279q-225 0 -338 -433q-82 -319 -82 -497z" />
<glyph unicode="R" d="M37 0l35 172h98l227 1137h-98l35 172h540q240 0 335.5 -58.5t95.5 -208.5q0 -164 -92.5 -287.5t-292.5 -230.5l256 -524h75l-34 -172h-312l-309 616h-41l-90 -444h174l-35 -172h-567zM590 791h49q139 0 236.5 109.5t97.5 266.5q0 86 -44 114t-177 28h-60z" />
<glyph unicode="S" d="M123 55l78 385h172l-19 -211q147 -92 262 -92q121 0 200 68.5t79 175.5q0 74 -111 147q-55 39 -59 41l-119 84q-147 104 -202.5 181t-55.5 178q0 219 165 363.5t417 144.5q172 0 395 -74l-74 -377h-174l21 217q-100 59 -201 60q-94 0 -161.5 -67t-67.5 -157 q0 -84 176 -202l127 -89q150 -102 195.5 -163.5t45.5 -153.5q0 -197 -147 -354q-180 -197 -512 -197q-166 0 -430 92z" />
<glyph unicode="T" d="M244 0l35 172h221l227 1137h-233l-45 -224h-185l78 396h1137l-80 -396h-185l46 224h-236l-227 -1137h221l-33 -172h-741z" />
<glyph unicode="U" d="M195 287q0 76 24 209l164 813h-100l34 172h494l-35 -172h-98l-148 -742q-35 -162 -34 -241q0 -84 60 -136.5t157 -52.5q129 0 194.5 80t106.5 291l162 801h-101l35 172h395l-35 -172h-98l-153 -766q-33 -160 -66 -248t-86 -150q-158 -182 -444 -182q-199 0 -313.5 87 t-114.5 237z" />
<glyph unicode="V" d="M274 1309l35 172h486l-35 -172h-127l88 -1008l514 1008h-127l35 172h370l-34 -172h-76l-664 -1309h-293l-114 1309h-58z" />
<glyph unicode="W" d="M213 0l123 1309h-62l35 172h387l-34 -172h-91l-71 -787h6l268 750h227l-14 -760h6l246 797h-55l35 172h294l-34 -172h-62l-407 -1309h-244l12 868l-317 -868h-248z" />
<glyph unicode="X" d="M12 0l35 174h82l487 563l-206 572h-111l35 172h555l-35 -172h-117l119 -324l260 324h-94l35 172h418l-35 -172h-105l-417 -490l235 -645h96l-32 -174h-543l35 174h114l-145 395l-332 -395h94l-32 -174h-396z" />
<glyph unicode="Y" d="M238 0l34 172h246l96 477l-247 660h-93l35 172h543l-35 -172h-96l158 -424l305 424h-103l35 172h395l-36 -172h-84l-480 -660l-96 -477h246l-35 -172h-788z" />
<glyph unicode="Z" d="M111 0l36 184l893 1125h-446l-45 -222h-184l79 394h957l-37 -185l-885 -1112h490l49 248h186l-86 -432h-1007z" />
<glyph unicode="[" d="M287 -297l375 1876h692l-37 -172h-418l-307 -1532h420l-35 -172h-690z" />
<glyph unicode="\" d="M315 1579h220l634 -1876h-219z" />
<glyph unicode="]" d="M133 -297l35 172h420l305 1532h-420l35 172h692l-377 -1876h-690z" />
<glyph unicode="^" d="M254 543l655 938l283 -938h-219l-148 518l-352 -518h-219z" />
<glyph unicode="_" d="M-39 -197l39 197h1229l-39 -197h-1229z" />
<glyph unicode="`" d="M688 1604h285l143 -322h-172z" />
<glyph unicode="a" d="M141 221q0 168 146 295q174 150 534 150h88l25 112q8 49 8 68q0 94 -166 94q-127 0 -239 -53l-45 -115h-173l52 254q272 84 485 84q211 0 299 -51t88 -172q0 -25 -6 -74l-129 -641h111l-35 -172h-367l-18 104q-182 -129 -373 -129q-285 0 -285 246zM451 272 q0 -102 116 -102q130 0 269 121l45 227h-45q-168 0 -276.5 -69.5t-108.5 -176.5z" />
<glyph unicode="b" d="M135 0l283 1405h-101l35 174h396l-132 -655q186 186 379 186q305 0 305 -367q0 -270 -149 -493q-180 -274 -518 -275q-84 0 -201 25h-297zM473 203l27 -6q78 -20 147 -21q158 0 255 147.5t97 385.5q0 174 -147 174q-127 0 -279 -172z" />
<glyph unicode="c" d="M168 422q0 303 229.5 495.5t587.5 192.5q209 0 404 -55l-74 -365h-172l16 203q-102 47 -223 47q-201 0 -325 -134t-124 -351q0 -283 342 -283q148 0 414 94l-43 -215q-254 -76 -465 -76q-567 0 -567 447z" />
<glyph unicode="d" d="M150 342q0 268 149 494q180 274 518 274q84 0 201 -25l63 320h-123l35 174h420l-283 -1407h99l-33 -172h-395l30 160q-184 -184 -376 -185q-305 0 -305 367zM451 377q0 -174 147 -174q127 0 276 172l103 508l-27 6q-72 20 -147 20q-158 0 -255 -147.5t-97 -384.5z" />
<glyph unicode="e" d="M168 406q0 295 206 499.5t503 204.5q201 0 311 -103.5t110 -291.5q0 -80 -20 -176l-10 -58h-787q-4 -41 -4 -51q0 -260 322 -260q166 0 432 84l-39 -203q-258 -76 -485 -76q-260 0 -399.5 112t-139.5 319zM520 653h481q10 43 11 78q0 203 -185 203q-119 0 -193.5 -68 t-113.5 -213z" />
<glyph unicode="f" d="M121 0l35 172h270l141 705h-272l39 184h270l19 92q92 453 585 453q158 0 326 -78l-51 -256h-172v121q-72 39 -142 39q-199 0 -247 -269l-21 -102h414l-39 -184h-412l-141 -705h315l-34 -172h-883z" />
<glyph unicode="g" d="M51 -223q0 143 254 248q-78 63 -78 116q0 111 213 246q-152 94 -151 246q0 197 148.5 337t357.5 140q72 0 163 -25l476 25l-105 -211l-188 31q35 -78 35 -152q0 -190 -148.5 -324.5t-359.5 -134.5q-43 0 -86 11q-92 -57 -93 -103q0 -43 158 -43h150q317 0 317 -198 q0 -176 -180 -291t-453 -115q-197 0 -313.5 53.5t-116.5 143.5zM373 -154q0 -94 184 -94q109 0 184.5 47t75.5 117q0 47 -39 65.5t-141 18.5h-152q-113 -84 -112 -154zM573 637q0 -145 119 -145q88 0 147.5 86t59.5 210q0 150 -119 150q-86 0 -146.5 -88t-60.5 -213z" />
<glyph unicode="h" d="M37 0l35 172h104l246 1233h-105l35 174h396l-132 -655q195 186 406 186q240 0 240 -205q0 -70 -21 -160l-113 -573h105l-35 -172h-518l35 172h129l94 473q18 100 18 135q0 102 -106 103q-111 0 -283 -172l-106 -539h129l-35 -172h-518z" />
<glyph unicode="i" d="M139 0l35 172h369l149 741h-370l34 172h666l-182 -913h370l-34 -172h-1037zM766 1282l59 297h295l-57 -297h-297z" />
<glyph unicode="j" d="M8 -356l82 405h172l-22 -231q92 -68 184 -68q106 0 160.5 72t93.5 266l164 825h-432l34 172h727l-194 -981q-53 -268 -200.5 -396t-403.5 -128q-148 1 -365 64zM915 1282l60 297h297l-60 -297h-297z" />
<glyph unicode="k" d="M37 0l35 174h98l248 1231h-101l35 174h396l-193 -963h49l342 297h-123l35 172h516l-35 -172h-147l-320 -276l254 -463h101l-35 -174h-471l35 174l-176 320h-50l-65 -320h100l-35 -174h-493z" />
<glyph unicode="l" d="M139 0l35 172h369l248 1235h-371l35 172h665l-280 -1407h370l-34 -172h-1037z" />
<glyph unicode="m" d="M25 0l34 172h80l148 741h-80l35 172h301l-37 -184q88 111 155.5 160t133.5 49q114 0 114 -141q0 -31 -4 -68q80 111 145.5 160t135.5 49q123 0 123 -131q0 -49 -25 -180l-125 -627h86l-35 -172h-309l127 635l23 115q12 61 12 102t-27 41q-51 0 -176 -217l-135 -676h-221 l127 635l20 115q14 78 15 102q0 39 -27 39q-53 0 -176 -215l-137 -676h-301z" />
<glyph unicode="n" d="M37 0l35 172h104l148 741h-105l35 172h389l-33 -161q121 111 205 148.5t207 37.5q240 0 240 -205q0 -70 -21 -160l-113 -573h105l-35 -172h-518l35 172h129l94 473q18 100 18 135q0 102 -106 103q-111 0 -283 -172l-106 -539h129l-35 -172h-518z" />
<glyph unicode="o" d="M164 416q0 287 198.5 490.5t481.5 203.5q211 0 331.5 -116.5t120.5 -321.5q0 -291 -199.5 -494t-486.5 -203q-205 0 -325.5 119t-120.5 322zM471 401q0 -254 178 -254q137 0 238.5 159t101.5 378q0 254 -178 254q-137 0 -238.5 -158.5t-101.5 -378.5z" />
<glyph unicode="p" d="M-41 -395l35 174h98l227 1134h-100l37 172h393l-31 -161q186 186 377 186q305 0 305 -367q0 -270 -149 -493q-180 -274 -518 -275q-96 0 -201 25l-45 -221h125l-35 -174h-518zM473 203l27 -6q78 -20 147 -21q158 0 255 147.5t97 383.5q0 176 -147 176q-127 0 -277 -172z " />
<glyph unicode="q" d="M150 342q0 268 149 494q180 274 518 274q84 0 201 -25h295l-260 -1306h123l-35 -174h-518l34 174h99l75 381q-184 -184 -376 -185q-305 0 -305 367zM451 377q0 -174 147 -174q127 0 276 172l103 508l-27 6q-72 20 -147 20q-158 0 -255 -147.5t-97 -384.5z" />
<glyph unicode="r" d="M55 0l35 172h248l147 741h-247l34 172h543l-33 -159q186 184 371 184q119 0 231 -55l-69 -353h-174l6 154q-49 31 -103 31q-121 0 -307 -187l-104 -528h321l-34 -172h-865z" />
<glyph unicode="s" d="M199 51l63 320h172l-4 -150q129 -71 243 -71h3q90 0 139 36.5t49 104.5q0 80 -147 125l-135 41q-267 78 -267 257q-1 176 151 286t400 110q197 0 375 -59l-61 -312h-172l4 156q-88 43 -201 43q-201 0 -201 -145q0 -61 152 -111l160 -51q242 -80 241 -244 q0 -182 -147.5 -297t-382.5 -115q-192 0 -434 76z" />
<glyph unicode="t" d="M252 889l35 172h270l55 270h295l-53 -270h432l-35 -172h-432l-96 -475q-14 -72 -14 -129q0 -100 118 -101q109 0 314 86l-41 -202q-238 -92 -393 -93q-139 0 -221.5 64.5t-82.5 177.5q0 76 23 189l96 483h-270z" />
<glyph unicode="u" d="M184 180q0 74 19 160l114 573h-104l35 172h389l-129 -645q-20 -96 -21 -137q0 -102 107 -102q115 0 283 174l108 538h-129l35 172h412l-181 -913h105l-35 -172h-389l33 160q-123 -109 -207 -147t-207 -38q-238 0 -238 205z" />
<glyph unicode="v" d="M195 913l34 172h555l-34 -172h-142l107 -653l395 653h-131l35 172h420l-35 -172h-105l-551 -913h-294l-154 913h-100z" />
<glyph unicode="w" d="M195 913l34 172h394l-33 -172h-82l-29 -510h4l213 474h246l14 -504h5l188 540h-78l33 172h330l-35 -172h-74l-319 -913h-246l-17 602h-4l-272 -602h-248l49 913h-73z" />
<glyph unicode="x" d="M25 0l34 172h125l377 360l-209 379h-98l35 174h514l-33 -174h-80l113 -202l213 202h-74l35 174h409l-34 -174h-95l-374 -348l219 -391h137l-35 -172h-588l35 172h109l-117 211l-217 -211h100l-34 -172h-467z" />
<glyph unicode="y" d="M27 -395l34 172h197l252 256l-215 880h-98l32 172h586l-35 -172h-149l127 -518l342 518h-148l35 172h449l-37 -172h-101l-755 -1136h202l-36 -172h-682z" />
<glyph unicode="z" d="M147 0l39 197l701 716h-385l-39 -198h-172l74 370h907l-35 -172l-709 -729h416l41 199h172l-76 -383h-934z" />
<glyph unicode="{" d="M256 555l35 172h84q156 0 218 53.5t62 182.5v20l-6 156v26q0 223 135.5 318.5t452.5 95.5h125l-35 -172h-88q-199 0 -244 -51q-29 -29 -34 -78q0 -4 -5 -45q-2 -16 -2 -31v-106q-4 -197 -68.5 -291t-240.5 -166q186 -72 186 -225q0 -90 -57 -228l-45 -106 q-33 -76 -33 -111q0 -92 238 -92h88l-35 -174h-125q-248 0 -357.5 54.5t-109.5 174.5q0 80 56 211l67 156q41 96 41 141q0 115 -219 115h-84z" />
<glyph unicode="|" d="M457 -297l374 1876h197l-375 -1876h-196z" />
<glyph unicode="}" d="M123 -297l35 174h88q197 0 243 49q29 31 35 80q0 2 4 45q2 16 2 29v108q4 195 69 290t241 165q-98 39 -142.5 92t-44.5 135q0 88 58 226l45 106q35 80 35 113q0 92 -240 92h-86l33 172h125q250 0 358.5 -53t108.5 -174q0 -78 -56 -213l-67 -156q-41 -100 -41 -139 q0 -117 221 -117h82l-35 -172h-84q-154 0 -217.5 -52t-63.5 -181v-23l7 -156v-26q0 -223 -135.5 -318.5t-452.5 -95.5h-125z" />
<glyph unicode="~" d="M190 432q33 156 89 244q96 154 270 153q113 0 223 -96l59 -53q84 -70 132 -70q100 0 151 203h172q-37 -164 -88 -244q-100 -154 -270 -153q-115 0 -223 96l-62 53q-82 70 -129 70q-101 0 -152 -203h-172z" />
<glyph unicode="&#xa0;" />
<glyph unicode="&#xa1;" d="M387 -395l59 297l218 764h170l-93 -764l-57 -297h-297zM635 838l49 247h295l-49 -247h-295z" />
<glyph unicode="&#xa2;" d="M264 602q0 342 225 545q154 139 414 174l41 197h172l-39 -191q117 -8 289 -39l-68 -338h-174l6 150q-43 25 -92 35l-153 -768q164 8 309 57l-43 -215q-133 -29 -305 -37l-41 -209h-172l41 211q-127 16 -200 49t-126 96q-84 104 -84 283zM592 651q0 -192 127 -258l147 746 q-121 -41 -197.5 -176.5t-76.5 -311.5z" />
<glyph unicode="&#xa3;" d="M119 0l49 248q111 0 177.5 89t107.5 286l16 82h-172l35 172h172l24 116q106 524 541 525q143 0 315 -58l-59 -301h-172l8 164q-66 23 -108 23q-158 0 -197 -193l-55 -276h246l-35 -172h-248l-6 -39q-55 -289 -322 -418h719l-49 -248h-987z" />
<glyph unicode="&#xa4;" d="M84 279l238 196q-39 98 -39 176q0 181 143 355l-156 196l146 123l157 -197q143 82 282.5 82t250.5 -82l235 197l97 -123l-236 -196q39 -96 39 -177q0 -182 -145 -354l157 -196l-145 -123l-160 196q-143 -82 -282 -82q-125 0 -248 82l-236 -196zM485 688 q0 -96 62.5 -157.5t161.5 -61.5q129 0 229 98.5t100 225.5q0 96 -62.5 158.5t-158.5 62.5q-131 0 -231.5 -98.5t-100.5 -227.5z" />
<glyph unicode="&#xa5;" d="M254 340l27 135h297l40 203h-296l26 135h203l-246 496h-22l32 172h504l-35 -172h-122l212 -455l367 455h-123l35 172h354l-34 -172h-25l-420 -496h209l-27 -135h-297l-39 -203h295l-26 -135h-297l-33 -168h221l-33 -172h-741l35 172h221l35 168h-297z" />
<glyph unicode="&#xa6;" d="M457 -297l147 741h197l-148 -741h-196zM684 840l147 739h197l-147 -739h-197z" />
<glyph unicode="&#xa7;" d="M102 -256l64 317h172l-4 -153q131 -57 235 -58q100 0 169 44.5t69 107.5q0 76 -170 160l-145 74q-236 117 -236 290q0 88 55.5 176.5t175.5 196.5q-129 80 -129 207q0 178 165 295t415 117q154 0 373 -45l-60 -302h-172l4 144q-104 31 -190 31q-100 0 -167 -42t-67 -108 q0 -63 160 -141l123 -60q139 -70 195.5 -138.5t56.5 -170.5q0 -178 -203 -375q119 -98 119 -225q0 -176 -166 -292t-420 -116q-162 0 -422 66zM506 641q0 -47 34.5 -83t123.5 -79l174 -86l22 -10q100 119 101 186q0 88 -158 168l-168 84l-21 10q-109 -117 -108 -190z" />
<glyph unicode="&#xa8;" d="M539 1284l43 221h223l-45 -221h-221zM983 1284l43 221h223l-45 -221h-221z" />
<glyph unicode="&#xa9;" d="M184 496q0 406 217 715t512 309q205 0 316.5 -139.5t111.5 -395.5q0 -414 -219 -717q-219 -305 -522 -305q-195 0 -305.5 141.5t-110.5 391.5zM324 522q0 -436 305 -436q203 0 364 209q209 274 209 663q0 437 -309 437q-227 0 -397 -262q-172 -268 -172 -611zM420 616 q0 229 137 395.5t328 166.5q98 0 196 -27l17 -4l-39 -197h-86l20 92q-63 25 -121 25q-115 0 -197.5 -133t-82.5 -320q0 -203 170 -202q98 0 203 51l-23 -119l-22 -8q-129 -47 -213 -47q-133 0 -210 88t-77 239z" />
<glyph unicode="&#xaa;" d="M342 901q0 311 522 311h127l8 31l2 35q0 92 -184 92q-61 0 -174 -22l-16 -80h-172l37 188q197 63 385 64q369 0 368 -174q0 -35 -12 -109l-76 -373h135l-28 -147h-336l-13 106q-199 -106 -333 -106q-240 0 -240 184zM594 952q0 -61 90 -61q102 0 260 82l19 92h-117 q-252 0 -252 -113z" />
<glyph unicode="&#xab;" d="M182 543l533 444l114 -143l-299 -301l179 -301l-172 -144zM676 543l532 444l115 -143l-299 -301l178 -301l-172 -144z" />
<glyph unicode="&#xac;" d="M190 518l39 199h1033l-105 -520h-199l66 321h-834z" />
<glyph unicode="&#xad;" d="M252 518l39 199h934l-41 -199h-932z" />
<glyph unicode="&#xae;" d="M184 496q0 406 217 715t512 309q205 0 316.5 -139.5t111.5 -395.5q0 -414 -219 -717q-219 -305 -522 -305q-195 0 -305.5 141.5t-110.5 391.5zM324 522q0 -436 305 -436q203 0 364 209q209 274 209 663q0 437 -309 437q-227 0 -397 -262q-172 -268 -172 -611zM428 317 l18 99h27l129 649h-24l20 98h270q180 0 181 -164q0 -162 -175 -262l97 -321h26l-18 -99h-143l-111 367h-51l-53 -268h36l-20 -99h-209zM690 758h6q82 0 138.5 62.5t56.5 154.5q0 90 -105 90h-36z" />
<glyph unicode="&#xaf;" d="M502 1284l35 172h739l-35 -172h-739z" />
<glyph unicode="&#xb0;" d="M580 1251q0 139 109.5 247t252.5 108q106 0 174 -68t68 -172q0 -137 -110.5 -245.5t-252.5 -108.5q-106 0 -173.5 67.5t-67.5 171.5zM731 1278q0 -119 119 -119q72 0 127 54.5t55 125.5q0 119 -119 119q-72 0 -127 -54t-55 -126z" />
<glyph unicode="&#xb1;" d="M121 0l39 197h987l-39 -197h-987zM252 655l39 197h395l72 356h196l-71 -356h395l-39 -197h-395l-72 -358h-197l72 358h-395z" />
<glyph unicode="&#xb2;" d="M381 729l35 172q102 123 372 229l33 13q115 47 145.5 71.5t30.5 69.5q0 86 -166 86q-86 0 -163 -27l-31 -86h-148l41 203q176 59 349 60q356 0 356 -211q0 -156 -199 -232l-106 -41l-37 -12q-147 -55 -213 -123h494l-35 -172h-758z" />
<glyph unicode="&#xb3;" d="M395 752l35 174h148l4 -47q78 -14 155 -15q205 0 205 97q0 53 -61.5 72.5t-227.5 19.5h-96l31 147h98q326 0 326 105q0 68 -152 67q-74 0 -188 -29l-25 -63h-149l37 180q190 59 391 60q326 0 325 -179q0 -78 -58 -129t-187 -88q90 -27 130 -65.5t40 -97.5 q0 -113 -120 -178.5t-323 -65.5q-164 0 -338 35z" />
<glyph unicode="&#xb4;" d="M625 1282l272 322h285l-385 -322h-172z" />
<glyph unicode="&#xb6;" d="M315 1073q0 190 118 305t317 115q41 0 94 -4l69 -6q14 -2 56 -2h340l-355 -1778h-174l326 1630h-172l-326 -1630h-172l207 1036q-174 41 -251 120t-77 214z" />
<glyph unicode="&#xb7;" d="M549 469l63 319h322l-64 -319h-321z" />
<glyph unicode="&#xb8;" d="M315 -401l19 90q66 -14 115 -15q133 0 133 70q0 74 -179 74h-20l158 182h135l-98 -113q203 -27 202 -135q0 -76 -84 -130t-198 -54q-78 0 -183 31z" />
<glyph unicode="&#xb9;" d="M467 729l31 148h229l90 442l-242 -47l29 147l488 99l-129 -641h231l-31 -148h-696z" />
<glyph unicode="&#xba;" d="M381 1034q0 209 156.5 346.5t394.5 137.5q379 0 379 -324q0 -209 -156 -343t-399 -134q-375 0 -375 317zM629 1044q0 -80 46 -130t122 -50q109 0 188.5 96.5t79.5 229.5q0 80 -46 130t-122 50q-111 0 -189.5 -96t-78.5 -230z" />
<glyph unicode="&#xbb;" d="M123 242l299 301l-178 301l172 143l354 -444l-532 -445zM616 242l299 301l-178 301l172 143l357 -444l-535 -445z" />
<glyph unicode="&#xbc;" d="M70 -37l1208 1555h143l-1210 -1555h-141zM285 1284l28 148l363 86l-158 -791h-196l118 594zM600 178l27 135l434 478h186l-96 -478h100l-28 -135h-99l-34 -178h-187l37 178h-340zM766 313h201l55 283z" />
<glyph unicode="&#xbd;" d="M31 -37l1208 1555h143l-1210 -1555h-141zM276 1284l29 148l365 86l-160 -791h-197l119 594zM705 0l34 172q82 125 215 211l29 20q129 84 129 177q0 76 -76 75q-33 0 -75 -26l-27 -86h-119l39 188q150 59 238 60q221 0 221 -189q0 -150 -142 -242q-10 -6 -79 -45 q-20 -10 -23 -12l-31 -18q-88 -53 -129 -125h320l-31 -160h-493z" />
<glyph unicode="&#xbe;" d="M84 -37l1208 1555h144l-1211 -1555h-141zM182 752l33 161h115l-8 -43q55 -18 88 -18q59 0 92 31.5t33 91.5q0 84 -152 84h-43l27 135h47q190 0 190 127q0 63 -76 63q-45 0 -110 -28l-8 -45h-117l31 153q145 55 251 56q219 0 220 -164q0 -156 -207 -230q129 -49 129 -157 q0 -106 -90 -179t-224 -73q-82 0 -221 35zM602 178l29 135l434 478h184l-96 -478h100l-28 -135h-99l-34 -178h-187l37 178h-340zM768 313h201l55 283z" />
<glyph unicode="&#xbf;" d="M90 -160q0 174 186 295l82 55l70 52q125 88 171 154.5t73 189.5l16 80h297l-8 -39q-29 -135 -87.5 -216t-219.5 -206l-70 -55q-182 -139 -182 -259q0 -152 221 -151q102 0 219 47l60 176h174l-66 -330q-293 -66 -459 -65q-477 0 -477 272zM723 838l49 247h297l-49 -247 h-297z" />
<glyph unicode="&#xc0;" d="M25 0l34 174h62l637 1307h305l115 -1307h61l-35 -174h-491l35 174h135l-21 234h-448l-115 -234h137l-35 -174h-376zM498 580h350l-53 610h-2zM678 1925h285l145 -321h-174z" />
<glyph unicode="&#xc1;" d="M25 0l34 174h62l637 1307h305l115 -1307h61l-35 -174h-491l35 174h135l-21 234h-448l-115 -234h137l-35 -174h-376zM498 580h350l-53 610h-2zM762 1604l272 321h285l-385 -321h-172z" />
<glyph unicode="&#xc2;" d="M25 0l34 174h62l637 1307h305l115 -1307h61l-35 -174h-491l35 174h135l-21 234h-448l-115 -234h137l-35 -174h-376zM498 580h350l-53 610h-2zM584 1604l272 321h285l145 -321h-160l-153 188h-2l-226 -188h-161z" />
<glyph unicode="&#xc3;" d="M25 0l34 174h62l637 1307h305l115 -1307h61l-35 -174h-491l35 174h135l-21 234h-448l-115 -234h137l-35 -174h-376zM498 580h350l-53 610h-2zM584 1604q39 168 102.5 244.5t161.5 76.5q63 0 119 -43l32 -27l15 -10l6 -4l2 -2l4 -4q53 -47 84 -47q66 0 92 137h148 q-39 -168 -101.5 -244.5t-163.5 -76.5q-66 0 -118 43l-33 26q-12 10 -16 15l-23 18q-41 35 -72 35q-61 0 -92 -137h-147z" />
<glyph unicode="&#xc4;" d="M25 0l34 174h62l637 1307h305l115 -1307h61l-35 -174h-491l35 174h135l-21 234h-448l-115 -234h137l-35 -174h-376zM498 580h350l-53 610h-2zM602 1606l45 221h221l-43 -221h-223zM1047 1606l45 221h221l-45 -221h-221z" />
<glyph unicode="&#xc5;" d="M25 0l34 174h62l637 1307h305l115 -1307h61l-35 -174h-491l35 174h135l-21 234h-448l-115 -234h137l-35 -174h-376zM498 580h350l-53 610h-2zM719 1671q0 111 87 196t200 85q84 0 137 -53.5t53 -135.5q0 -113 -86 -197.5t-201 -84.5q-84 0 -137 53t-53 137zM831 1692 q0 -98 99 -99q61 0 107 45t46 105q0 98 -100 98q-59 0 -105.5 -45t-46.5 -104z" />
<glyph unicode="&#xc6;" d="M12 0l35 172h62l653 1309h700l-63 -322h-187l31 150h-147l-99 -482h224l-35 -172h-221l-95 -471h172l33 160h185l-68 -344h-629l80 408h-223l-115 -236h88l-37 -172h-344zM502 580h176l121 608h-2z" />
<glyph unicode="&#xc7;" d="M184 541q0 391 260 692q246 285 625 285q172 0 381 -66l-84 -428h-174l27 258q-76 63 -179 64q-217 0 -374.5 -238t-157.5 -565q0 -178 96 -281.5t260 -103.5q148 0 379 102l-43 -215q-217 -82 -428 -82q-281 0 -434.5 150.5t-153.5 427.5zM442 -401l19 90 q66 -14 114 -15q133 0 134 70q0 74 -179 74h-20l158 182h135l-98 -113q203 -27 202 -135q0 -76 -84 -130t-198 -54q-78 0 -183 31z" />
<glyph unicode="&#xc8;" d="M37 0l35 172h147l227 1137h-147l35 172h1071l-74 -371h-184l41 199h-445l-96 -482h234l24 123h172l-84 -420h-172l25 125h-234l-94 -471h506l45 224h184l-82 -408h-1134zM643 1925h287l143 -321h-172z" />
<glyph unicode="&#xc9;" d="M37 0l35 172h147l227 1137h-147l35 172h1071l-74 -371h-184l41 199h-445l-96 -482h234l24 123h172l-84 -420h-172l25 125h-234l-94 -471h506l45 224h184l-82 -408h-1134zM827 1604l273 321h284l-385 -321h-172z" />
<glyph unicode="&#xca;" d="M37 0l35 172h147l227 1137h-147l35 172h1071l-74 -371h-184l41 199h-445l-96 -482h234l24 123h172l-84 -420h-172l25 125h-234l-94 -471h506l45 224h184l-82 -408h-1134zM616 1604l273 321h287l143 -321h-160l-151 188h-2l-230 -188h-160z" />
<glyph unicode="&#xcb;" d="M37 0l35 172h147l227 1137h-147l35 172h1071l-74 -371h-184l41 199h-445l-96 -482h234l24 123h172l-84 -420h-172l25 125h-234l-94 -471h506l45 224h184l-82 -408h-1134zM580 1606l45 221h221l-43 -221h-223zM1024 1606l43 221h223l-45 -221h-221z" />
<glyph unicode="&#xcc;" d="M123 0l35 172h344l225 1137h-342l35 172h981l-35 -172h-342l-227 -1137h344l-37 -172h-981zM678 1925h285l145 -321h-174z" />
<glyph unicode="&#xcd;" d="M123 0l35 172h344l225 1137h-342l35 172h981l-35 -172h-342l-227 -1137h344l-37 -172h-981zM762 1604l272 321h285l-385 -321h-172z" />
<glyph unicode="&#xce;" d="M123 0l35 172h344l225 1137h-342l35 172h981l-35 -172h-342l-227 -1137h344l-37 -172h-981zM584 1604l272 321h285l145 -321h-162l-149 188h-2l-230 -188h-159z" />
<glyph unicode="&#xcf;" d="M123 0l35 172h344l225 1137h-342l35 172h981l-35 -172h-342l-227 -1137h344l-37 -172h-981zM602 1606l43 221h223l-45 -221h-221zM1047 1606l43 221h223l-45 -221h-221z" />
<glyph unicode="&#xd0;" d="M37 0l35 174h98l100 496h-137l35 172h135l94 467h-98l35 172h438q582 0 582 -520q0 -344 -207 -621q-250 -340 -705 -340h-405zM467 174h45q281 0 420 326q104 240 104 497q0 158 -71.5 233t-227.5 77l-43 2l-94 -467h199l-37 -172h-197z" />
<glyph unicode="&#xd1;" d="M37 0l35 172h98l227 1137h-98l35 172h297l387 -1000l164 828h-148l35 172h444l-34 -172h-99l-262 -1309h-196l-390 993l-163 -821h147l-35 -172h-444zM580 1604q39 168 102 244.5t162 76.5q63 0 119 -43l34 -27q12 -10 21 -18q55 -49 88 -49q66 0 92 137h150 q-39 -168 -101.5 -244.5t-163.5 -76.5q-70 0 -118 43l-33 26q-14 10 -23 19q-59 49 -88 49q-63 0 -94 -137h-147z" />
<glyph unicode="&#xd2;" d="M168 455q0 326 137 626q98 213 256 325t359 112q440 0 440 -492q0 -328 -139 -629q-201 -434 -625 -434q-428 0 -428 492zM463 414q0 -279 190 -279q199 0 310 371q39 125 69.5 298t30.5 263q0 279 -180 279q-231 0 -342 -451q-78 -315 -78 -481zM680 1925h285l143 -321 h-172z" />
<glyph unicode="&#xd3;" d="M168 455q0 326 137 626q98 213 256 325t359 112q440 0 440 -492q0 -328 -139 -629q-201 -434 -625 -434q-428 0 -428 492zM463 414q0 -279 190 -279q199 0 310 371q39 125 69.5 298t30.5 263q0 279 -180 279q-231 0 -342 -451q-78 -315 -78 -481zM764 1604l272 321h285 l-385 -321h-172z" />
<glyph unicode="&#xd4;" d="M168 455q0 326 137 626q98 213 256 325t359 112q440 0 440 -492q0 -328 -139 -629q-201 -434 -625 -434q-428 0 -428 492zM463 414q0 -279 190 -279q199 0 310 371q39 125 69.5 298t30.5 263q0 279 -180 279q-231 0 -342 -451q-78 -315 -78 -481zM586 1604l272 321h285 l143 -321h-160l-151 188h-2l-228 -188h-159z" />
<glyph unicode="&#xd5;" d="M168 455q0 326 137 626q98 213 256 325t359 112q440 0 440 -492q0 -328 -139 -629q-201 -434 -625 -434q-428 0 -428 492zM463 414q0 -279 190 -279q199 0 310 371q39 125 69.5 298t30.5 263q0 279 -180 279q-231 0 -342 -451q-78 -315 -78 -481zM584 1604 q41 168 103.5 244.5t160.5 76.5q61 0 121 -43l32 -27q6 -4 13 -10l6 -4l6 -6q53 -47 84 -47q63 0 94 137h148q-39 -168 -101.5 -244.5t-163.5 -76.5q-68 0 -118 43l-33 26q-23 18 -25 21q-55 47 -86 47q-61 0 -92 -137h-149z" />
<glyph unicode="&#xd6;" d="M168 455q0 326 137 626q98 213 256 325t359 112q440 0 440 -492q0 -328 -139 -629q-201 -434 -625 -434q-428 0 -428 492zM463 414q0 -279 190 -279q199 0 310 371q39 125 69.5 298t30.5 263q0 279 -180 279q-231 0 -342 -451q-78 -315 -78 -481zM602 1606l45 221h221 l-43 -221h-223zM1047 1606l45 221h223l-45 -221h-223z" />
<glyph unicode="&#xd7;" d="M178 260l418 348l-279 348l168 142l279 -350l420 350l110 -142l-417 -348l278 -348l-168 -139l-278 348l-420 -348z" />
<glyph unicode="&#xd8;" d="M41 -37l178 219q-53 121 -53 275q0 324 137 624q98 213 256 325t359 112q184 0 307 -105l84 105h174l-180 -218q55 -129 55 -276q0 -326 -139 -625q-96 -211 -253 -323.5t-358 -112.5q-184 0 -309 105l-86 -105h-172zM465 481l582 715q-43 150 -166 150q-152 0 -267 -238 q-61 -123 -96 -274q-53 -233 -53 -345v-8zM475 285q43 -150 166 -150q154 0 266 236q57 117 94 272q23 90 56 348l2 6z" />
<glyph unicode="&#xd9;" d="M195 287q0 76 24 209l164 813h-100l34 172h494l-35 -172h-98l-148 -742q-35 -162 -34 -241q0 -84 60 -136.5t157 -52.5q129 0 194.5 80t106.5 291l162 801h-101l35 172h395l-35 -172h-98l-153 -766q-33 -160 -66 -248t-86 -150q-158 -182 -444 -182q-199 0 -313.5 87 t-114.5 237zM731 1925h285l143 -321h-172z" />
<glyph unicode="&#xda;" d="M195 287q0 76 24 209l164 813h-100l34 172h494l-35 -172h-98l-148 -742q-35 -162 -34 -241q0 -84 60 -136.5t157 -52.5q129 0 194.5 80t106.5 291l162 801h-101l35 172h395l-35 -172h-98l-153 -766q-33 -160 -66 -248t-86 -150q-158 -182 -444 -182q-199 0 -313.5 87 t-114.5 237zM815 1604l272 321h285l-385 -321h-172z" />
<glyph unicode="&#xdb;" d="M195 287q0 76 24 209l164 813h-100l34 172h494l-35 -172h-98l-148 -742q-35 -162 -34 -241q0 -84 60 -136.5t157 -52.5q129 0 194.5 80t106.5 291l162 801h-101l35 172h395l-35 -172h-98l-153 -766q-33 -160 -66 -248t-86 -150q-158 -182 -444 -182q-199 0 -313.5 87 t-114.5 237zM635 1604l272 321h285l145 -321h-161l-152 188h-2l-227 -188h-160z" />
<glyph unicode="&#xdc;" d="M195 287q0 76 24 209l164 813h-100l34 172h494l-35 -172h-98l-148 -742q-35 -162 -34 -241q0 -84 60 -136.5t157 -52.5q129 0 194.5 80t106.5 291l162 801h-101l35 172h395l-35 -172h-98l-153 -766q-33 -160 -66 -248t-86 -150q-158 -182 -444 -182q-199 0 -313.5 87 t-114.5 237zM653 1606l43 221h224l-46 -221h-221zM1096 1606l45 221h223l-45 -221h-223z" />
<glyph unicode="&#xdd;" d="M238 0l34 172h246l96 477l-247 660h-93l35 172h543l-35 -172h-96l158 -424l305 424h-103l35 172h395l-36 -172h-84l-480 -660l-96 -477h246l-35 -172h-788zM827 1604l271 321h286l-385 -321h-172z" />
<glyph unicode="&#xde;" d="M37 0l35 172h196l228 1137h-197l35 172h690l-35 -172h-196l-21 -101h141q244 0 350.5 -69.5t106.5 -227.5q0 -268 -203.5 -442t-515.5 -174h-61l-25 -123h197l-35 -172h-690zM625 469h37q182 0 283.5 102.5t101.5 286.5q0 100 -54.5 139t-191.5 39h-64z" />
<glyph unicode="&#xdf;" d="M43 0l35 174h86l178 893q57 279 200.5 409t391.5 130q309 0 309 -222q0 -156 -141 -292l-49 -50q-88 -84 -88 -135q0 -25 32 -61l35 -43l98 -107q152 -164 152 -309q0 -174 -133 -293t-328 -119q-88 0 -186 25l55 285h160l-4 -131q23 -6 37 -7q47 0 86 49.5t39 108.5 q0 57 -47 109l-31 35l-121 135q-109 123 -109 209q0 88 119 243l53 70q102 131 103 221q0 104 -107 105q-92 0 -144 -73t-87 -247l-188 -938h110l-35 -174h-481z" />
<glyph unicode="&#xe0;" d="M141 221q0 168 146 295q174 150 534 150h88l25 112q8 49 8 68q0 94 -166 94q-127 0 -239 -53l-45 -115h-173l52 254q272 84 485 84q211 0 299 -51t88 -172q0 -25 -6 -74l-129 -641h111l-35 -172h-367l-18 104q-182 -129 -373 -129q-285 0 -285 246zM451 272 q0 -102 116 -102q130 0 269 121l45 227h-45q-168 0 -276.5 -69.5t-108.5 -176.5zM637 1604h285l143 -322h-172z" />
<glyph unicode="&#xe1;" d="M141 221q0 168 146 295q174 150 534 150h88l25 112q8 49 8 68q0 94 -166 94q-127 0 -239 -53l-45 -115h-173l52 254q272 84 485 84q211 0 299 -51t88 -172q0 -25 -6 -74l-129 -641h111l-35 -172h-367l-18 104q-182 -129 -373 -129q-285 0 -285 246zM451 272 q0 -102 116 -102q130 0 269 121l45 227h-45q-168 0 -276.5 -69.5t-108.5 -176.5zM721 1282l272 322h285l-385 -322h-172z" />
<glyph unicode="&#xe2;" d="M141 221q0 168 146 295q174 150 534 150h88l25 112q8 49 8 68q0 94 -166 94q-127 0 -239 -53l-45 -115h-173l52 254q272 84 485 84q211 0 299 -51t88 -172q0 -25 -6 -74l-129 -641h111l-35 -172h-367l-18 104q-182 -129 -373 -129q-285 0 -285 246zM451 272 q0 -102 116 -102q130 0 269 121l45 227h-45q-168 0 -276.5 -69.5t-108.5 -176.5zM543 1282l272 322h285l145 -322h-162l-151 191h-2l-228 -191h-159z" />
<glyph unicode="&#xe3;" d="M141 221q0 168 146 295q174 150 534 150h88l25 112q8 49 8 68q0 94 -166 94q-127 0 -239 -53l-45 -115h-173l52 254q272 84 485 84q211 0 299 -51t88 -172q0 -25 -6 -74l-129 -641h111l-35 -172h-367l-18 104q-182 -129 -373 -129q-285 0 -285 246zM451 272 q0 -102 116 -102q130 0 269 121l45 227h-45q-168 0 -276.5 -69.5t-108.5 -176.5zM516 1282q39 168 101.5 245t162.5 77q63 0 119 -43l33 -25q6 -6 12 -10t10 -6l4 -4q51 -47 84 -48q61 0 93 136h149q-39 -168 -102.5 -245t-161.5 -77q-63 0 -119 43l-35 27l-16 14q-4 2 -6 4 l-17 14q-41 35 -71 35q-61 0 -92 -137h-148z" />
<glyph unicode="&#xe4;" d="M141 221q0 168 146 295q174 150 534 150h88l25 112q8 49 8 68q0 94 -166 94q-127 0 -239 -53l-45 -115h-173l52 254q272 84 485 84q211 0 299 -51t88 -172q0 -25 -6 -74l-129 -641h111l-35 -172h-367l-18 104q-182 -129 -373 -129q-285 0 -285 246zM451 272 q0 -102 116 -102q130 0 269 121l45 227h-45q-168 0 -276.5 -69.5t-108.5 -176.5zM553 1284l43 221h223l-45 -221h-221zM997 1284l43 221h224l-45 -221h-222z" />
<glyph unicode="&#xe5;" d="M141 221q0 168 146 295q174 150 534 150h88l25 112q8 49 8 68q0 94 -166 94q-127 0 -239 -53l-45 -115h-173l52 254q272 84 485 84q211 0 299 -51t88 -172q0 -25 -6 -74l-129 -641h111l-35 -172h-367l-18 104q-182 -129 -373 -129q-285 0 -285 246zM451 272 q0 -102 116 -102q130 0 269 121l45 227h-45q-168 0 -276.5 -69.5t-108.5 -176.5zM702 1470q0 113 86 198t201 85q84 0 137.5 -53t53.5 -135q0 -113 -86 -198t-201 -85q-84 0 -137.5 52t-53.5 136zM815 1491q0 -98 98 -98q61 0 107.5 46t46.5 105q0 98 -100 98 q-61 0 -106.5 -45t-45.5 -106z" />
<glyph unicode="&#xe6;" d="M104 227q0 182 117 298t301 116h86l27 133q14 66 14 88q0 72 -71 72q-43 0 -105 -35l-39 -96h-145l47 233q190 74 317 74q131 0 197 -115q115 115 237 115q238 0 238 -289q0 -100 -33 -266l-16 -86h-457q-12 -66 -12 -107q0 -178 170 -178q113 1 252 54l-41 -201 q-197 -61 -320 -62q-190 0 -278 177q-121 -176 -264 -177q-98 0 -160 70t-62 182zM358 293q0 -78 64 -78q54 0 117 76l34 178h-28q-82 0 -134.5 -49t-52.5 -127zM856 641h207l6 25q25 121 25 188q0 86 -58 86q-102 0 -170 -260z" />
<glyph unicode="&#xe7;" d="M168 422q0 303 229.5 495.5t587.5 192.5q209 0 404 -55l-74 -365h-172l16 203q-102 47 -223 47q-201 0 -325 -134t-124 -351q0 -283 342 -283q148 0 414 94l-43 -215q-254 -76 -465 -76q-567 0 -567 447zM397 -401l19 90q66 -14 114 -15q133 0 134 70q0 74 -179 74h-20 l158 182h135l-99 -113q203 -27 203 -135q0 -76 -84 -130t-198 -54q-78 0 -183 31z" />
<glyph unicode="&#xe8;" d="M168 406q0 295 206 499.5t503 204.5q201 0 311 -103.5t110 -291.5q0 -80 -20 -176l-10 -58h-787q-4 -41 -4 -51q0 -260 322 -260q166 0 432 84l-39 -203q-258 -76 -485 -76q-260 0 -399.5 112t-139.5 319zM520 653h481q10 43 11 78q0 203 -185 203q-119 0 -193.5 -68 t-113.5 -213zM678 1604h285l143 -322h-172z" />
<glyph unicode="&#xe9;" d="M168 406q0 295 206 499.5t503 204.5q201 0 311 -103.5t110 -291.5q0 -80 -20 -176l-10 -58h-787q-4 -41 -4 -51q0 -260 322 -260q166 0 432 84l-39 -203q-258 -76 -485 -76q-260 0 -399.5 112t-139.5 319zM520 653h481q10 43 11 78q0 203 -185 203q-119 0 -193.5 -68 t-113.5 -213zM762 1282l272 322h285l-385 -322h-172z" />
<glyph unicode="&#xea;" d="M168 406q0 295 206 499.5t503 204.5q201 0 311 -103.5t110 -291.5q0 -80 -20 -176l-10 -58h-787q-4 -41 -4 -51q0 -260 322 -260q166 0 432 84l-39 -203q-258 -76 -485 -76q-260 0 -399.5 112t-139.5 319zM520 653h481q10 43 11 78q0 203 -185 203q-119 0 -193.5 -68 t-113.5 -213zM582 1282l272 322h285l145 -322h-162l-151 191h-2l-228 -191h-159z" />
<glyph unicode="&#xeb;" d="M168 406q0 295 206 499.5t503 204.5q201 0 311 -103.5t110 -291.5q0 -80 -20 -176l-10 -58h-787q-4 -41 -4 -51q0 -260 322 -260q166 0 432 84l-39 -203q-258 -76 -485 -76q-260 0 -399.5 112t-139.5 319zM520 653h481q10 43 11 78q0 203 -185 203q-119 0 -193.5 -68 t-113.5 -213zM600 1284l43 221h223l-45 -221h-221zM1044 1284l43 221h224l-45 -221h-222z" />
<glyph unicode="&#xec;" d="M139 0l35 172h369l149 741h-370l34 172h666l-182 -913h370l-34 -172h-1037zM633 1604h285l143 -322h-172z" />
<glyph unicode="&#xed;" d="M139 0l35 172h369l149 741h-370l34 172h666l-182 -913h370l-34 -172h-1037zM766 1282l272 322h285l-385 -322h-172z" />
<glyph unicode="&#xee;" d="M139 0l35 172h369l149 741h-370l34 172h666l-182 -913h370l-34 -172h-1037zM563 1282l273 322h284l146 -322h-162l-152 191h-2l-227 -191h-160z" />
<glyph unicode="&#xef;" d="M139 0l35 172h369l149 741h-370l34 172h666l-182 -913h370l-34 -172h-1037zM580 1284l45 221h223l-45 -221h-223zM1026 1284l43 221h223l-45 -221h-221z" />
<glyph unicode="&#xf0;" d="M168 406q0 270 187.5 468.5t443.5 198.5q61 0 137 -18q-41 131 -164 213l-285 -203l-79 131l217 158q-117 37 -240 39h-31l37 186q244 0 440 -76l252 189l82 -133l-186 -138q84 -57 132 -104t89 -115q109 -174 109 -426q0 -334 -201 -569q-201 -231 -494 -232 q-211 0 -328.5 114t-117.5 317zM469 403q0 -244 190 -243q135 0 234.5 153.5t99.5 360.5q0 215 -182 215q-141 0 -241.5 -142.5t-100.5 -343.5z" />
<glyph unicode="&#xf1;" d="M37 0l35 172h104l148 741h-105l35 172h389l-33 -161q121 111 205 148.5t207 37.5q240 0 240 -205q0 -70 -21 -160l-113 -573h105l-35 -172h-518l35 172h129l94 473q18 100 18 135q0 102 -106 103q-111 0 -283 -172l-106 -539h129l-35 -172h-518zM485 1282 q39 168 101.5 245t163.5 77q63 0 118 -43l33 -25q6 -6 12.5 -10t10.5 -6l4 -4q51 -47 84 -48q61 0 92 136h149q-39 -168 -102.5 -245t-161.5 -77q-63 0 -119 43l-34 27l-17 14q-4 2 -6 4l-16 14q-41 35 -72 35q-61 0 -92 -137h-148z" />
<glyph unicode="&#xf2;" d="M164 416q0 287 198.5 490.5t481.5 203.5q211 0 331.5 -116.5t120.5 -321.5q0 -291 -199.5 -494t-486.5 -203q-205 0 -325.5 119t-120.5 322zM471 401q0 -254 178 -254q137 0 238.5 159t101.5 378q0 254 -178 254q-137 0 -238.5 -158.5t-101.5 -378.5zM623 1604h284 l144 -322h-172z" />
<glyph unicode="&#xf3;" d="M164 416q0 287 198.5 490.5t481.5 203.5q211 0 331.5 -116.5t120.5 -321.5q0 -291 -199.5 -494t-486.5 -203q-205 0 -325.5 119t-120.5 322zM471 401q0 -254 178 -254q137 0 238.5 159t101.5 378q0 254 -178 254q-137 0 -238.5 -158.5t-101.5 -378.5zM707 1282l272 322 h285l-385 -322h-172z" />
<glyph unicode="&#xf4;" d="M164 416q0 287 198.5 490.5t481.5 203.5q211 0 331.5 -116.5t120.5 -321.5q0 -291 -199.5 -494t-486.5 -203q-205 0 -325.5 119t-120.5 322zM471 401q0 -254 178 -254q137 0 238.5 159t101.5 378q0 254 -178 254q-137 0 -238.5 -158.5t-101.5 -378.5zM526 1282l273 322 h284l146 -322h-162l-152 191h-2l-227 -191h-160z" />
<glyph unicode="&#xf5;" d="M164 416q0 287 198.5 490.5t481.5 203.5q211 0 331.5 -116.5t120.5 -321.5q0 -291 -199.5 -494t-486.5 -203q-205 0 -325.5 119t-120.5 322zM471 401q0 -254 178 -254q137 0 238.5 159t101.5 378q0 254 -178 254q-137 0 -238.5 -158.5t-101.5 -378.5zM526 1282 q39 168 101.5 245t163.5 77q63 0 118 -43l33 -25q6 -6 12.5 -10t10.5 -6l4 -4q51 -47 84 -48q61 0 92 136h149q-39 -168 -102.5 -245t-161.5 -77q-63 0 -119 43l-34 27l-17 14q-4 2 -6 4l-16 14q-41 35 -72 35q-61 0 -92 -137h-148z" />
<glyph unicode="&#xf6;" d="M164 416q0 287 198.5 490.5t481.5 203.5q211 0 331.5 -116.5t120.5 -321.5q0 -291 -199.5 -494t-486.5 -203q-205 0 -325.5 119t-120.5 322zM471 401q0 -254 178 -254q137 0 238.5 159t101.5 378q0 254 -178 254q-137 0 -238.5 -158.5t-101.5 -378.5zM545 1284l43 221 h223l-45 -221h-221zM989 1284l43 221h223l-45 -221h-221z" />
<glyph unicode="&#xf7;" d="M207 518l39 199h1024l-39 -199h-1024zM467 0l59 297h295l-59 -297h-295zM655 938l60 297h295l-60 -297h-295z" />
<glyph unicode="&#xf8;" d="M57 -25l174 172q-74 117 -73 269q0 287 199.5 490.5t478.5 203.5q160 0 288 -82l95 94h174l-183 -178q80 -117 80 -274q0 -287 -198.5 -491t-481.5 -204q-162 0 -293 86l-86 -86h-174zM465 379l481 475q-61 84 -143 84q-137 0 -237.5 -158.5t-100.5 -376.5v-24zM496 236 q53 -88 147 -89q135 0 237.5 157t102.5 364v16l-2 33z" />
<glyph unicode="&#xf9;" d="M184 180q0 74 19 160l114 573h-104l35 172h389l-129 -645q-20 -96 -21 -137q0 -102 107 -102q115 0 283 174l108 538h-129l35 172h412l-181 -913h105l-35 -172h-389l33 160q-123 -109 -207 -147t-207 -38q-238 0 -238 205zM610 1604h285l143 -322h-172z" />
<glyph unicode="&#xfa;" d="M184 180q0 74 19 160l114 573h-104l35 172h389l-129 -645q-20 -96 -21 -137q0 -102 107 -102q115 0 283 174l108 538h-129l35 172h412l-181 -913h105l-35 -172h-389l33 160q-123 -109 -207 -147t-207 -38q-238 0 -238 205zM694 1282l273 322h284l-385 -322h-172z" />
<glyph unicode="&#xfb;" d="M184 180q0 74 19 160l114 573h-104l35 172h389l-129 -645q-20 -96 -21 -137q0 -102 107 -102q115 0 283 174l108 538h-129l35 172h412l-181 -913h105l-35 -172h-389l33 160q-123 -109 -207 -147t-207 -38q-238 0 -238 205zM516 1282l272 322h285l146 -322h-162l-152 191 h-2l-227 -191h-160z" />
<glyph unicode="&#xfc;" d="M184 180q0 74 19 160l114 573h-104l35 172h389l-129 -645q-20 -96 -21 -137q0 -102 107 -102q115 0 283 174l108 538h-129l35 172h412l-181 -913h105l-35 -172h-389l33 160q-123 -109 -207 -147t-207 -38q-238 0 -238 205zM535 1284l43 221h223l-45 -221h-221zM979 1284 l43 221h223l-45 -221h-221z" />
<glyph unicode="&#xfd;" d="M27 -395l34 172h197l252 256l-215 880h-98l32 172h586l-35 -172h-149l127 -518l342 518h-148l35 172h449l-37 -172h-101l-755 -1136h202l-36 -172h-682zM762 1282l272 322h285l-385 -322h-172z" />
<glyph unicode="&#xfe;" d="M-41 -395l35 174h98l326 1626h-99l35 174h394l-130 -655q186 186 377 186q305 0 305 -367q0 -270 -149 -493q-180 -274 -518 -275q-96 0 -201 25l-45 -221h125l-35 -174h-518zM473 203l27 -6q78 -20 147 -21q158 0 255 147.5t97 383.5q0 176 -147 176q-127 0 -277 -172z " />
<glyph unicode="&#xff;" d="M27 -395l34 172h197l252 256l-215 880h-98l32 172h586l-35 -172h-149l127 -518l342 518h-148l35 172h449l-37 -172h-101l-755 -1136h202l-36 -172h-682zM602 1284l43 221h223l-45 -221h-221zM1047 1284l43 221h223l-45 -221h-221z" />
<glyph unicode="&#x152;" d="M127 350q0 135 35 328.5t88 355.5q78 238 193.5 361t261.5 123q100 0 157 -70l8 33h588l-67 -346h-146l35 174h-209l-96 -482h112l25 123h143l-84 -420h-143l25 125h-113l-94 -471h246l34 174h144l-72 -358h-625l9 35q-100 -72 -189 -72q-266 0 -266 387zM371 270 q0 -135 98 -135q76 0 119 74.5t84 279.5l104 525q31 147 31 211q0 121 -94 121q-115 0 -183 -216q-47 -147 -103 -449t-56 -411z" />
<glyph unicode="&#x153;" d="M121 338q0 322 147.5 547t358.5 225q137 0 233 -125q113 125 244 125q217 0 217 -285q0 -127 -33 -290l-14 -66h-416q-6 -57 -6 -82q0 -195 174 -194q88 0 205 59l-41 -209q-133 -68 -266 -68q-162 0 -260 111q-117 -111 -258 -111q-285 0 -285 363zM375 293 q0 -145 69 -146q101 0 156 281l47 227q20 106 21 170q0 113 -64 113q-78 0 -153.5 -213t-75.5 -432zM893 641h176l8 47q20 125 21 166q0 86 -49 86q-95 0 -156 -299z" />
<glyph unicode="&#x178;" d="M238 0l34 172h246l96 477l-247 660h-93l35 172h543l-35 -172h-96l158 -424l305 424h-103l35 172h395l-36 -172h-84l-480 -660l-96 -477h246l-35 -172h-788zM666 1606l45 221h221l-45 -221h-221zM1110 1606l45 221h221l-43 -221h-223z" />
<glyph unicode="&#x2c6;" d="M520 1282l273 322h284l146 -322h-162l-152 191h-2l-227 -191h-160z" />
<glyph unicode="&#x2dc;" d="M518 1282q39 168 101.5 245t162.5 77q63 0 119 -43l33 -25q6 -6 12 -10t10 -6l5 -4q51 -47 83 -48q61 0 93 136h149q-39 -168 -102.5 -245t-161.5 -77q-63 0 -119 43l-35 27l-16 14q-4 2 -6 4l-17 14q-41 35 -71 35q-61 0 -92 -137h-148z" />
<glyph unicode="&#x2000;" horiz-adv-x="976" />
<glyph unicode="&#x2001;" horiz-adv-x="1952" />
<glyph unicode="&#x2002;" horiz-adv-x="976" />
<glyph unicode="&#x2003;" horiz-adv-x="1952" />
<glyph unicode="&#x2004;" horiz-adv-x="650" />
<glyph unicode="&#x2005;" horiz-adv-x="488" />
<glyph unicode="&#x2006;" horiz-adv-x="325" />
<glyph unicode="&#x2007;" horiz-adv-x="325" />
<glyph unicode="&#x2008;" horiz-adv-x="244" />
<glyph unicode="&#x2009;" horiz-adv-x="390" />
<glyph unicode="&#x200a;" horiz-adv-x="108" />
<glyph unicode="&#x2010;" d="M252 518l39 199h934l-41 -199h-932z" />
<glyph unicode="&#x2011;" d="M252 518l39 199h934l-41 -199h-932z" />
<glyph unicode="&#x2012;" d="M252 518l39 199h934l-41 -199h-932z" />
<glyph unicode="&#x2013;" d="M227 532l31 148h987l-31 -148h-987z" />
<glyph unicode="&#x2014;" d="M106 532l31 148h1229l-31 -148h-1229z" />
<glyph unicode="&#x2018;" d="M629 938l53 266q41 203 132 289t267 86h21l-25 -123h-14q-109 0 -156 -174h135l-69 -344h-344z" />
<glyph unicode="&#x2019;" d="M629 938l24 123h15q57 0 94 41t61 133h-135l70 344h344l-53 -266q-41 -203 -131 -291q-43 -41 -117 -65.5t-137 -20.5l-17 2h-18z" />
<glyph unicode="&#x201a;" horiz-adv-x="1337" d="M455 -297l24 123h15q57 0 94 41t61 133h-135l70 344h344l-54 -266q-41 -205 -132 -290t-267 -85h-20z" />
<glyph unicode="&#x201c;" d="M391 987l53 268q68 324 340 324h23l-23 -111l-18 2h-6q-106 0 -129 -147l-8 -39h125l-60 -297h-297zM934 987l55 268q63 324 340 324h21l-23 -111l-20 2h-4q-106 0 -129 -147l-9 -39h125l-59 -297h-297z" />
<glyph unicode="&#x201d;" d="M391 987l23 111h20q106 0 133 145l6 39h-122l59 297h297l-55 -268q-66 -324 -340 -324h-21zM934 987l22 111h21q109 0 133 145l6 39h-123l60 297h297l-56 -268q-66 -324 -340 -324h-20z" />
<glyph unicode="&#x201e;" horiz-adv-x="1337" d="M254 -295l22 111h19q63 8 92 38.5t43 106.5l6 39h-123l60 297h295l-54 -268q-61 -324 -340 -324h-20zM797 -295l22 111h19q63 8 91.5 38.5t43.5 106.5l6 39h-123l59 297h295l-53 -268q-63 -324 -340 -324h-20z" />
<glyph unicode="&#x2022;" d="M506 791q0 131 103.5 231t236.5 100q100 0 162.5 -62.5t62.5 -162.5q0 -131 -103.5 -230.5t-236.5 -99.5q-98 0 -161.5 63.5t-63.5 160.5z" />
<glyph unicode="&#x2026;" d="M82 0l49 248h248l-49 -248h-248zM492 0l49 248h247l-51 -248h-245zM901 0l49 248h246l-47 -248h-248z" />
<glyph unicode="&#x202f;" horiz-adv-x="390" />
<glyph unicode="&#x2039;" d="M381 543l643 432l84 -133l-354 -297l233 -295l-137 -137z" />
<glyph unicode="&#x203a;" d="M338 248l356 297l-235 293l139 137l467 -430l-643 -432z" />
<glyph unicode="&#x205f;" horiz-adv-x="488" />
<glyph unicode="&#x20ac;" d="M123 492l90 149h72q16 119 47 223h-135l92 148h100q68 127 126 201.5t140 140.5q209 166 514 166q141 0 306 -41l-41 -205q-188 72 -297 72q-158 0 -268.5 -81t-188.5 -253h602l-92 -148h-561q-37 -131 -54 -223h480l-90 -149h-394q8 -154 99.5 -243t236.5 -89 q119 0 322 84l-43 -215q-203 -66 -371 -66q-492 0 -534 529h-158z" />
<glyph unicode="&#x2122;" d="M285 739l20 99h74l108 544h-73l-21 -98h-86l39 197h457l-39 -197h-86l18 98h-73l-109 -544h74l-19 -99h-284zM692 739l19 99h53l110 544h-53l19 99h241l2 -420l164 420h244l-21 -99h-55l-108 -544h55l-19 -99h-186l123 617l-219 -568h-94v562l-123 -611h-152z" />
<glyph unicode="&#x25fc;" horiz-adv-x="1085" d="M0 0v1085h1085v-1085h-1085z" />
<glyph unicode="&#xfb01;" d="M37 0l35 174h104l143 715h-104l35 172h104l25 131q39 193 171 302.5t324 109.5q94 0 187 -37l-55 -285h-175l3 135q-12 12 -27 13q-94 0 -135 -203l-35 -166h670l-179 -887h105l-35 -174h-493l34 174h105l143 715h-385l-141 -715h104l-35 -174h-493zM1104 1282l57 297 h248l-59 -297h-246z" />
<glyph unicode="&#xfb02;" d="M37 0l35 174h104l143 715h-104l35 172h104l25 119q84 424 483 424q88 0 189 -15q76 -10 86 -10h272l-281 -1405h105l-35 -174h-493l34 174h105l235 1174q-137 80 -215 79q-154 0 -194 -213l-33 -153h272l-35 -172h-272l-141 -715h104l-35 -174h-493z" />
</font>
</defs>
</svg>
